<svg version="1.2" xmlns="http://www.w3.org/2000/svg" viewBox="0 0 4692 2292" width="4692" height="2292">
	<title>tmd-logo</title>
	<style>
		.s0 { fill: #faaf18 } 
		.s1 { fill: #ffffff } 
		.s2 { fill: #ffffff } 
	</style>
	<g>
		<path class="s0" d="m2208.7 1387c-14 0-27 0-42.5 0 0-109.1 0-217.9 0-326.7q-2.3-0.5-4.6-1c-1.8 4.3-3.8 8.5-5.3 12.9-33.3 96.5-66.8 192.9-99.6 289.6-3.5 10.5-8.2 13.5-18.7 13.4-33.3-0.5-33.1-0.2-44.1-32.4-30.8-89.9-61.8-179.8-92.8-269.7-1.7-4.9-4.3-9.3-6.5-14q-1.9 0.5-3.9 1c0 108.5 0 217 0 326.5-15.1 0-28.3 0-42.4 0 0-123.9 0-247.5 0-372.7 23.5 0 46.3-0.4 69 0.5 3.4 0.2 7.9 6.6 9.4 11 26.4 77.7 52.4 155.5 78.5 233.2 7.3 21.6 14.6 43.1 23.2 68.8 10.1-29.9 18.8-55.9 27.5-81.9 24.6-73.4 49.3-146.7 73.6-220.2 2.7-8.1 6.2-12 15.6-11.6 20.9 0.8 41.9 0.2 63.6 0.2 0 124.8 0 248.1 0 373.1z"/>
		<path class="s0" d="m1848.3 2032.9c0-124.8 0-248 0-371 1.1-0.8 1.8-1.9 2.5-1.9 51.9 0.5 103.8-0.9 155.5 2.4 52.1 3.3 86.4 33.1 100.7 83.3 19.5 68.5 18.7 137.5-3.1 205.3-16.7 51.8-53.7 80-108.4 81.6-48.5 1.4-97.1 0.3-147.2 0.3zm42.6-37.5c34.3 0 67.9 1.5 101.3-0.4 30.4-1.8 53.5-18.6 64.2-47 8.6-22.8 14.8-47.2 17.7-71.3 5-42.9 3.4-85.8-12.1-127-10.8-28.5-31.3-47.9-61.7-50.1-36.1-2.5-72.5-0.6-109.4-0.6 0 98.9 0 196.8 0 296.4z"/>
		<path class="s1" d="m3500.4 1120.7c19.6 0 37.8 0 56.6 0q51.3 120.5 102.6 240.9 2.6-0.6 5.1-1.1c0-79.3 0-158.6 0-239 11.9 0 21.3 0 31.7 0 0 88.2 0 176.3 0 266.1-17.4 0-34.1 0.6-50.8-0.5-3.3-0.2-7.3-6.1-9.1-10.2-31.1-71.4-61.9-143-92.8-214.5-2.2-4.9-4.6-9.8-6.9-14.7q-2 0.3-4 0.6c0 79.1 0 158.3 0 238.4-12.2 0-21.8 0-32.4 0 0-88.4 0-176.5 0-266z"/>
		<path class="s1" d="m3461.8 2033.3c-16.5 0-32.4 0.7-48.1-0.5-3.9-0.3-8.8-5.8-10.7-10.1-31.1-71.3-61.9-142.9-92.7-214.3-2.3-5.3-5-10.3-7.5-15.4q-2.2 0.4-4.4 0.9c0 79.2 0 158.4 0 238.5-12 0-21.5 0-31.8 0 0-88.8 0-176.8 0-266.4 17.4 0 34.1-0.6 50.8 0.5 3.7 0.3 8.4 6.1 10.2 10.4 28.4 65.9 56.3 132.1 84.5 198.1 4.6 10.8 9.6 21.4 14.4 32.1q2.4-0.6 4.7-1.2c0-79.4 0-158.7 0-239 11.3 0 20.4 0 30.6 0 0 88 0 176 0 266.4z"/>
		<path class="s0" d="m1963 406.9c-39.5 0-76.7 0-114.7 0 0-13 0-24.9 0-37.7 89.2 0 178.3 0 268.4 0 0 12.2 0 24 0 37.3-36.8 0-73.5 0-112.1 0 0 112.3 0 223.2 0 334.8-14.7 0-27.6 0-41.6 0 0-111.1 0-221.7 0-334.4z"/>
		<path class="s1" d="m3152.8 1796.3c-23.3-2.3-45.6-5.1-67.9-6.3-12.9-0.8-26.3-0.5-39 1.9-30.4 5.9-41.8 28.9-46.2 56.4-5.9 36.8-6.4 73.6 1.7 110.1 7.4 33.6 23.3 48.9 57.4 51 21.6 1.3 43.6-1.8 65.7-2.9 0-29.1 0-55.6 0-83.1-14.5 0-28.3 0-43.2 0 0-9.6 0-18.1 0-27.4 24.1 0 47.8 0 72.6 0 0.5 3.5 1.3 7 1.3 10.6 0.1 36.4-0.2 72.9 0.2 109.4 0.1 9.1-1.9 13.8-12 14.2-33 1.5-66 6.1-98.8 4.9-40.2-1.5-63.5-26.9-73-64.6-11-44.1-11.6-88.9-1.8-133.3 11.7-53.4 39.8-75.9 95.1-75.8 23.2 0.1 46.5 3.4 69.6 6.7 22.7 3.4 22.6 4.2 18.3 28.2z"/>
		<path class="s1" d="m3096.1 1386.9c-9.8 0-18.9 0-29.4 0 0-39.8 0-78.9 0-119.9-14.2 0-27.2 0-40.1 0-26.7 0-53.4 0.6-80-0.3-12.1-0.4-14.9 3.8-14.7 15.2 0.7 34.5 0.3 69.1 0.3 104.7-10.6 0-20.1 0-30.5 0 0-88.3 0-176.4 0-265.4 9.7 0 19.2 0 30.4 0 0 38.9 0 77.5 0 116.9 45.3 0 89 0 134.2 0 0-39 0-77.5 0-116.9 10.5 0 19.6 0 29.8 0 0 88 0 176.1 0 265.7z"/>
		<path class="s1" d="m4306.1 1120.3c19.6 0 37.8 0.4 56-0.1 8-0.3 11 2.5 13.1 10.4 20.2 74.7 40.9 149.3 61.4 223.9 2.8 10.3 5.6 20.6 9 33.2-7.6 0-14-0.6-20.2 0.1-8.2 1-11.6-2.7-13.5-10.2-4-15.8-9.1-31.4-12.8-47.3-1.9-8.2-5.3-11.3-14.1-11.2-30.9 0.6-61.8 0.5-92.6 0-7.5-0.1-10.9 2.5-12.6 9.4-3.7 14.5-9 28.6-11.5 43.2-2.4 13.5-8.8 18.2-21.8 16.1-3.6-0.6-7.4-0.1-13.8-0.1 24.6-89.7 48.8-177.9 73.4-267.4zm82.7 170.9c-12.8-46.3-25.3-91-37.4-135.9-2-7.4-5.7-9.1-12.8-9.2-8-0.1-10 4-11.8 10.6-9.3 34.6-18.9 69.1-28.4 103.6-2.8 10-5.7 19.9-8.7 30.9 34 0 65.7 0 99.1 0z"/>
		<path class="s1" d="m3331.9 1120.8c24.5 89.1 48.6 177.1 73.3 266.9-9 0-16.1 1-22.7-0.4-3.9-0.8-8.8-4.7-10-8.3-6.3-19.4-11.6-39.2-17.4-59.7-35.6 0-70.7-0.2-105.7 0.4-3.2 0-8 4.2-9.1 7.4-4.8 14.1-9.4 28.5-12.1 43.1-2.7 14-9 20.4-23.5 17.6-3.6-0.7-7.3-0.6-12.4-1 24.6-89.3 48.8-177.6 73.1-266 22.6 0 44.1 0 66.5 0zm16.3 170.3c-13.1-47.3-25.5-93.1-38.8-138.7-0.8-2.9-7.8-5.5-12-5.6-3.3 0-8.6 3.5-9.7 6.6-4.9 14.5-8.8 29.4-12.9 44.3-8.5 30.9-17 61.8-25.6 93.5 33.1-0.1 64.8-0.1 99-0.1z"/>
		<path class="s1" d="m3050 475.2c22.4 0 43.8 0 66.4 0 24.3 88.4 48.6 176.8 72.8 264.8-1.4 0.8-1.8 1.2-2.2 1.3-26.9 3.5-26.9 3.5-34.3-22.2-3.3-11.6-7.3-23.2-9.8-35-1.8-7.8-5.1-10.7-13.3-10.6q-46.3 0.7-92.6 0c-8.1-0.1-11.6 2.6-13.4 10.4-3.1 13.6-8.6 26.8-10.8 40.5-2.5 15.4-10.6 20.2-24.9 17.7-3.1-0.5-6.4-0.6-11-1 24.5-89.1 48.8-177.4 73.1-265.9zm-16.2 169.8c33.7 0 65.6 0 98.8 0-13-47-25.4-92.7-38.7-138.2-0.8-3-7.9-5.9-11.8-5.6-3.7 0.4-9.1 4.4-10.2 7.9-6.4 20.4-11.7 41.1-17.4 61.8-6.8 24.5-13.7 49-20.7 74.1z"/>
		<path class="s1" d="m2394.4 475.8c0 8.8 0 16.6 0 25.7-43.5 0-86.4 0-130.5 0 0 30.7 0 60.2 0 90.9 35.7 0 71.1 0 107.4 0 0 9.3 0 17.4 0 26.9-35.6 0-71 0-107.4 0 0 32.3 0 63.4 0 95.6 43.2 0 86.1 0 130 0 0 9.3 0 17.4 0 26.4-53.3 0-106.5 0-160.7 0 0-88.1 0-176.3 0-265.5 53.1 0 106.6 0 161.2 0z"/>
		<path class="s1" d="m2373.4 1120.9c54.4 0 107.6 0 161.8 0 0 8.6 0 16.7 0 26.4-43.7 0-87 0-131 0 0 30.8 0 60 0 90.8 35.9 0 71.6 0 107.9 0 0 9.7 0 17.8 0 27.2-36.1 0-71.5 0-107.8 0 0 32.2 0 63.2 0 95.3 43.5 0 86.4 0 130.6 0 0 9.1 0 17.2 0 26.2-53.6 0-107.1 0-161.5 0 0-88.4 0-176.6 0-265.9z"/>
		<path class="s1" d="m2327.5 1792.8c0 31.1 0 59.9 0 90.5 35.7 0 71.4 0 106.1 0 1.5 2.5 2.3 3.2 2.3 4 1.6 23.8 1.6 23.7-22 23.8q-41.4 0.1-82.8 0.3c-0.8 0-1.6 0.7-3.4 1.4 0 30.3 0 60.9 0 93.3 43.4 0 86.7 0 130.7 0 0 9.5 0 17.2 0 26.1-53.5 0-107 0-161.4 0 0-88.3 0-176.4 0-265.4 53.6 0 107.2 0 161.5 0 0 8.5 0 16.6 0 25.9-43.6 0.1-86.5 0.1-131 0.1z"/>
		<path class="s1" d="m2550 2029.1c1.3-9.7 2.4-17.3 3.5-25.6 24 2.1 47.1 4.4 70.2 5.9 8.3 0.6 16.8 0.2 25-1.2 31.7-5.5 48.8-33.6 40.1-64.6-3.3-11.7-10.6-19.9-22.1-23.3-16.9-5.2-34.1-9.2-51.1-14-8.5-2.4-17-5.2-25.3-8.2-31.3-11.6-46-29.8-41.9-74.4 3.4-36.5 24.4-55.6 60.5-60.6 35.6-5 70.5 0.5 106.7 6-0.9 8.9-1.6 16.5-2.4 25.6-19-1.8-36.5-4.2-54.1-4.8-15.7-0.6-31.8-0.7-47.3 1.7-19.8 3-30.9 16.6-32.1 35.1-1.6 25 4.4 36.2 25.7 43.8 14.8 5.4 30.3 8.9 45.6 13.2 4 1.2 8.1 2 12.2 3.1 53.4 14.2 68.7 41.6 51.9 104.2-8.2 30.6-35.7 45.4-75.5 46.4-5.6 0.1-11.2 0.4-16.8-0.2-23.6-2.5-47.2-5.2-72.8-8.1z"/>
		<path class="s1" d="m3735 1768.9c-0.8 9.1-1.5 16.4-2.4 25.6-18.4-1.6-35.8-3.9-53.3-4.5-15.8-0.6-31.8-0.8-47.3 1.4-20.1 3-31.4 16.2-32.8 34.6-2 25.4 4.1 37.2 26.2 44.7 21.1 7.2 43.1 11.9 64.4 18.6 42.6 13.6 54.5 33.2 50.1 80.7-3.4 37.2-26.4 62.9-64.8 64.9-34.5 1.8-69.4-1.9-105.7-3.3 1.4-11.6 2.3-19.2 3.3-28.1 23.6 2.1 46.6 4.4 69.7 5.8 9.2 0.6 18.7 0.1 27.7-1.6 32.1-5.8 50.1-40.3 35.7-69.7-3.5-7.3-11.5-14-19-17.2-12.7-5.4-26.7-7.9-40.1-11.7-11.7-3.3-23.6-5.9-34.8-10.2-35-13.5-49.3-37.8-44.5-74.4 4.7-36.9 24.6-56.3 61.5-61.5 35.2-4.9 69.7 0.9 106.1 5.9z"/>
		<path class="s1" d="m2486.4 737.3c1-9 1.8-16.7 2.7-25.1 24.3 2.1 47.4 4.7 70.6 6 10.6 0.5 21.5-0.2 31.9-2.5 21.7-4.6 33.3-21.3 34.2-46.7 0.8-24.2-6.4-35.5-29.7-42.5-18.7-5.7-38.1-9.1-56.8-14.8-46.6-14-63.2-41.5-53.8-89.1 5-25.4 21.2-40.8 45.8-47.8 28-8 89.4-5.8 119.8 4.7-0.6 7.4-1.2 15.1-1.9 24-19-1.8-36.6-4.2-54.2-4.9-15.7-0.5-31.8-0.6-47.3 1.7-19.1 2.9-30.7 16.6-32.1 33.8-2.1 25.6 4.1 37.7 25.6 45.1 17.6 6.2 35.9 10 53.7 15.4 10.6 3.3 21.3 7 31.4 11.6 19.2 8.8 29.2 24.3 29.8 45.3 0.3 12 0.9 24.4-1.4 36.2-7.3 38.3-34.5 57.8-80.4 58.4-14.4 0.1-28.9-1.1-43.3-2.5-14.3-1.5-28.5-4-44.6-6.3z"/>
		<path class="s1" d="m4124.9 1360.3c2.8 23.2 3 24.5-21.3 27.1-24.4 2.5-49.3 3.6-73.9 2.3-36.2-2-58.3-23.8-67.1-57.8-12.8-49.7-12.7-100.2-1.5-150 10.7-47.2 37.4-66.1 90.1-66.1 20.5 0 40.9 4.1 61.3 5.6 13.4 1 16.9 7.3 13.3 19.4-0.7 2.5-0.5 5.4-0.9 8.9-18.8-1.9-37.1-4.4-55.5-5.3-12.1-0.7-24.5-0.5-36.3 1.7-18.7 3.5-32.5 14.4-37.6 33.5-12.7 47.3-12.7 95.2-2.4 142.8 5.4 24.4 21.6 39.6 47.4 40 27.8 0.4 55.6-1.3 84.4-2.1z"/>
		<path class="s1" d="m2798.6 1357.5c0 9.7 0 17 0 26.2-39.4 7.3-79.2 15-119.1 0.6-28.8-10.4-41-34.5-46.5-62.1-8.8-44.9-9.2-90.3-0.2-135 10.8-53.4 40-73.9 98.5-71.4 22.2 0.9 44.3 4.7 67 7.2 0 9.8 0 17.9 0 26.8-19.5-2-37.9-4.5-56.3-5.5-12.1-0.6-24.4-0.2-36.3 1.9-22.9 4-35.6 19.7-40.1 41.6-8.9 42.9-10.2 86.3-1.1 129.3 6.5 30.5 19.5 42.7 50.4 45.4 20.2 1.7 40.9-0.9 61.3-1.9 6.9-0.4 13.7-1.9 22.4-3.1z"/>
		<path class="s1" d="m2761.5 741.2c0-89 0-176.8 0-265.5 9.6 0 18.7 0 29.9 0 0 78.8 0 157.9 0 238.5 40.3 0 78.4 0 117.4 0 0 9.7 0 17.8 0 27-48.8 0-97.3 0-147.3 0z"/>
		<path class="s1" d="m4541.8 1120.7c9.9 0 18.8 0 29.3 0 0 79.4 0 158.5 0 239 39.9 0 78 0 117.1 0 0 9.5 0 17.7 0 26.9-48.5 0-96.9 0-146.4 0 0-88 0-176.4 0-265.9z"/>
		<path class="s1" d="m3845 1386.9c-9.9 0-19 0-28.9 0 0-88.8 0-176.9 0-265.7 9.6 0 18.7 0 28.9 0 0 87.9 0 175.9 0 265.7z"/>
		<path class="s1" d="m2826.1 1766.7c10.3 0 19.5 0 29.5 0 0 88.7 0 176.8 0 265.7-10.2 0-19.6 0-29.5 0 0-89.1 0-177.5 0-265.7z"/>
	</g>
	<path class="s2" d="m843.2 705.4c-14.2 8.5-26.6 15-37.6 23.3-3.5 2.8-4.5 10.6-4.5 16-0.3 113.7-0.2 227.4-0.2 341.1 0 12.6 0.1 25.2 0 37.9-0.2 26.2-17.6 43.6-44.2 43.6-139.5 0-279 0.1-418.5-0.1-8.3 0-14.7 1-20.3 8.8-62.7 87.8-117.7 179.8-155.1 281.5-26.6 72.8-41 147.5-37 225.4 6.5 123.5 90.5 212.7 218.2 230.8 2.7 0.4 5.4 0.7 8 1.7-89.9 5.2-176.5-3.6-250-63.2-57.3-46.5-83-109.2-90.1-180.7-8.4-85.2 9.6-166.5 37.8-246 31.9-89.4 77.2-172.1 129.7-251.1 1-1.5 1.9-3 3.7-5.9-2.9-0.5-4.9-1-6.9-1.1-27.1-1.3-43.6-18.4-43.6-46-0.1-131.9 0-263.9 0-395.8 0-26.2-0.1-52.4 0-78.6 0.1-28.2 18.2-46.4 46.6-46.4q287.9-0.1 575.8 0.1c5 0 11.1-0.3 14.9 2.2 12.9 8.4 23 2.7 34.3-3.6 108.5-60.3 220.9-111 343.5-134.5 46.6-9 94.4-11.9 141.6-17.6 2.2-0.3 4.4-0.5 7.7-3.5q-104.9-55.2-209.7-110.4 0.4-1 0.8-2.1c80.2 30.4 160.4 60.8 242.9 92.1-11.2-75.4-22-148.9-32.8-222.3q1.1-0.3 2.3-0.6c21.3 69.6 42.7 139.2 64.9 211.6 61.5-57.6 121.7-113.8 181.8-170q0.7 0.6 1.5 1.2c-53.3 65.2-106.6 130.4-161.3 197.3 66.2 30.3 131.7 60.3 197.2 90.3q-0.4 1.1-0.8 2.2c-29.9-8.3-59.9-16.6-89.8-25 82.4 68.3 101.6 159.1 94.9 259.6-19.9-113-87.8-179-200.1-203.8 0 7.6-0.2 14.3 0.1 21 0.2 6.5 1 13 1.7 21.4 8 0 15.8-0.2 23.5 0.1 28.7 0.9 49.6 21.6 49.6 50.2 0.2 164.7 0.1 329.3 0 494 0 30.5-21.4 50.7-53.2 50.8-86.1 0.1-172.3 0-258.4 0-51.5 0-84.1 33-84.1 84.1 0.1 207.7 0 415.4 0 623-0.1 34.7-21.4 56-56.1 56q-210.6 0.1-421.3 0c-34.3 0-56.3-21.8-56.3-56q-0.1-325.6 0-651.1c0-34.2 22-55.9 56.4-56 63.2-0.1 126.4 0 189.6 0 35.5 0 62.8-27.5 62.8-63q0-207.7 0-415.4c0.1-5 0.1-9.9 0.1-17.5zm528.4-84.5c-3.3-0.3-5.6-0.7-7.9-0.7-113.3 0-226.6 0-339.9 0.2-5.4 0-11.3 1.1-16.2 3.4-46 21.8-91.8 44.1-137.8 66-9.6 4.6-12.8 11-12.8 21.9 0.4 142.7 0.3 285.4 0.3 428 0 41.1-34.7 75.5-76.1 75.6-62.3 0-124.5 0-186.8 0-31.9 0-46.1 14.1-46.1 46q0 321.3 0 642.7c0 32 14.1 46.4 45.8 46.4q207.1 0 414.3 0c31.8 0 45.4-13.5 45.4-44.9q0.1-308.7 0.3-617.4c0-63.2 37.9-101.1 101.4-101.1 85.2 0 170.3 0.1 255.5 0 24.3 0 38.7-14.2 38.7-37.9 0.1-163.8 0.2-327.5-0.2-491.2-0.1-7.8-2.8-16.9-7.3-23.3-12.9-18.2-31.9-15.1-51.2-13.3 1.9 34.2 3.7 67.3 5.5 100.3q-1.1 0.1-2.3 0.2-11.3-50.4-22.6-100.9zm-1136.2 1271.9c-3.7-2.5-7.3-5.1-11-7.5-67.8-44-103.1-107.9-111.3-186.6-9-86.5 7.1-170.2 37.5-250.9 27.2-72.1 62.9-140.2 104.7-204.9 52.4-81.3 111-157.9 178.9-227 45.8-46.6 91.2-94 141-136 57.4-48.3 118.6-92.1 179.7-135.6 70.1-49.8 146.1-89.6 224.7-124.4 71.4-31.5 144.9-57.3 222.1-68.4 29.1-4.2 47.3-16.9 63.9-38 12.5-15.9 26.6-30.6 42.9-49.3-36.6 1.7-68.7 2.6-100.8 4.8-15.7 1.1-31.4 4.2-46.9 7.2-84.2 16-164.3 44.8-241.9 80.5-148.6 68.3-283.3 158.6-405.8 266.4-59.9 52.7-116.4 109.5-171 167.7-73 77.7-136.2 163.1-190.2 255.4-39.1 66.9-73.8 135.7-96.9 209.8-21.8 69.7-37.4 140.6-28.9 214.5 9.9 86.8 46.7 156.8 127 198.4 25.5 13.1 52.4 23.3 82.3 23.9zm1331.5-1228.1c-7.3-83.8-83-172.6-183.7-185.9 1.3 23.2 2.6 46.3 4 69.9 75 14.6 135.9 49.5 179.7 116zm-377.3-59.4c61.6 0 119.6 0 178.5 0-2.8-12.8-6-24.5-7.9-36.4-1.4-8.2-5.5-11-13.2-10.9-30.4 0.2-60.8 0.1-91.2 0.7-4.7 0.1-10.1 2.4-13.9 5.3-16.7 12.7-33 26-52.3 41.3zm32.7-43.2c-58.2 9.8-111.1 22.1-161.9 42.8 39.3 1.2 78.4 1.3 117.5 1.1 2.6 0 6-0.8 7.6-2.5 11.5-12.5 22.6-25.4 36.8-41.4zm118.8-77.6c-24.4 19.5-47 37.6-72.8 58.3 31.4 0 58.1 0 85.8 0-4.2-18.9-8.3-37.3-13-58.3z"/>
</svg>