<?xml version="1.0" encoding="utf-8"?>
<!-- Generator: Adobe Illustrator 19.0.0, SVG Export Plug-In . SVG Version: 6.00 Build 0)  -->
<svg version="1.1" id="Layer_1" xmlns:inkscape="http://www.inkscape.org/namespaces/inkscape"
	 xmlns="http://www.w3.org/2000/svg" xmlns:xlink="http://www.w3.org/1999/xlink" x="0px" y="0px"
	 viewBox="-451.2 -737.4 3547.2 1565.7" style="enable-background:new -451.2 -737.4 3547.2 1565.7;" xml:space="preserve">

	 
<style type="text/css">
	.st0{clip-path:url(#SVGID_4_);}
	.st1{fill:none;}
	.st2{fill:#FFFFFF;stroke:#FFFFFF;stroke-miterlimit:10;}
	.st3{fill:#FFFFFF;}
	.st4{fill:#8D949F;}
</style>
<g>
	<defs>
		<polyline id="SVGID_1_" points="696.7,1000.9 2949.4,1000.9 2949.4,-551.9 696.7,-551.9 696.7,1000.9 		"/>
	</defs>
	<clipPath id="SVGID_2_">
		<use xlink:href="#SVGID_1_"  style="overflow:visible;"/>
	</clipPath>
</g>
<g>
	<defs>
		<polyline id="SVGID_3_" points="696.6,1001.1 2949.7,1001.1 2949.7,-552.1 696.6,-552.1 696.6,1001.1 		"/>
	</defs>
	<clipPath id="SVGID_4_">
		<use xlink:href="#SVGID_3_"  style="overflow:visible;"/>
	</clipPath>
	<g class="st0">
		<g inkscape:label="Viewport" inkscape:groupmode="layer">
			<path class="st1" d="M696.6,1001.1h2253V-552h-2253V1001.1"/>
		</g>
	</g>
</g>
<g inkscape:label="Model-Front" inkscape:groupmode="layer">
	<path class="st2" d="M1814.2-129.2h-369.5l369.4,0.1L1814.2-129.2z M1444.8-129.2l369.4,0.1h-378.2L1444.8-129.2z"/>
	<path class="st2" d="M1814.2-129.2h-369.5l369.4,0.1L1814.2-129.2z M1444.8-129.2l369.4,0.1h-378.2L1444.8-129.2z"/>
	<path class="st2" d="M1814.1-129.1h-378.2l377.9,0.7L1814.1-129.1z M1435.9-129.1l377.9,0.7H1427L1435.9-129.1z"/>
	<path class="st2" d="M1814.1-129.1h-378.2l377.9,0.7L1814.1-129.1z M1435.9-129.1l377.9,0.7H1427L1435.9-129.1z"/>
	<path class="st2" d="M1813.8-128.4H1427l386.3,1.2L1813.8-128.4z M1427-128.4l386.3,1.2h-395L1427-128.4z"/>
	<path class="st2" d="M1813.8-128.4H1427l386.3,1.2L1813.8-128.4z M1427-128.4l386.3,1.2h-395L1427-128.4z"/>
	<path class="st2" d="M1813.3-127.2h-395l394.3,1.6L1813.3-127.2z M1418.2-127.2l394.3,1.6h-403.1L1418.2-127.2z"/>
	<path class="st2" d="M1813.3-127.2h-395l394.3,1.6L1813.3-127.2z M1418.2-127.2l394.3,1.6h-403.1L1418.2-127.2z"/>
	<path class="st2" d="M1812.6-125.6h-403.1l402.2,2.2L1812.6-125.6z M1409.5-125.6l402.2,2.2h-410.9L1409.5-125.6z"/>
	<path class="st2" d="M1812.6-125.6h-403.1l402.2,2.2L1812.6-125.6z M1409.5-125.6l402.2,2.2h-410.9L1409.5-125.6z"/>
	<path class="st2" d="M1811.7-123.5h-410.9l409.8,2.5L1811.7-123.5z M1400.8-123.5l409.8,2.5h-418.3L1400.8-123.5z"/>
	<path class="st2" d="M1811.7-123.5h-410.9l409.8,2.5L1811.7-123.5z M1400.8-123.5l409.8,2.5h-418.3L1400.8-123.5z"/>
	<path class="st2" d="M1810.6-120.9h-418.3l417.1,3L1810.6-120.9z M1392.3-120.9l417.1,3h-425.5L1392.3-120.9z"/>
	<path class="st2" d="M1810.6-120.9h-418.3l417.1,3L1810.6-120.9z M1392.3-120.9l417.1,3h-425.5L1392.3-120.9z"/>
	<path class="st2" d="M1809.4-117.9h-425.5l424.1,3.4L1809.4-117.9z M1383.9-117.9l424.1,3.4h-432.2L1383.9-117.9z"/>
	<path class="st2" d="M1809.4-117.9h-425.5l424.1,3.4L1809.4-117.9z M1383.9-117.9l424.1,3.4h-432.2L1383.9-117.9z"/>
	<path class="st2" d="M1808-114.6h-432.2l430.6,3.8L1808-114.6z M1375.8-114.6l430.6,3.8h-438.6L1375.8-114.6z"/>
	<path class="st2" d="M1808-114.6h-432.2l430.6,3.8L1808-114.6z M1375.8-114.6l430.6,3.8h-438.6L1375.8-114.6z"/>
	<path class="st2" d="M1806.3-110.7h-438.6l436.8,4.2L1806.3-110.7z M1367.7-110.7l436.8,4.2h-444.6L1367.7-110.7z"/>
	<path class="st2" d="M1806.3-110.7h-438.6l436.8,4.2L1806.3-110.7z M1367.7-110.7l436.8,4.2h-444.6L1367.7-110.7z"/>
	<path class="st2" d="M1804.5-106.5h-444.6l442.7,4.7L1804.5-106.5z M1359.9-106.5l442.7,4.7h-450.4L1359.9-106.5z"/>
	<path class="st2" d="M1804.5-106.5h-444.6l442.7,4.7L1804.5-106.5z M1359.9-106.5l442.7,4.7h-450.4L1359.9-106.5z"/>
	<path class="st2" d="M1802.6-101.9h-450.4l448.2,5L1802.6-101.9z M1352.2-101.9l448.2,5h-455.5L1352.2-101.9z"/>
	<path class="st2" d="M1802.6-101.9h-450.4l448.2,5L1802.6-101.9z M1352.2-101.9l448.2,5h-455.5L1352.2-101.9z"/>
	<path class="st2" d="M1800.4-96.8h-455.5l453.2,5.4L1800.4-96.8z M1344.9-96.8l453.2,5.4H1338L1344.9-96.8z"/>
	<path class="st2" d="M1800.4-96.8h-455.5l453.2,5.4L1800.4-96.8z M1344.9-96.8l453.2,5.4H1338L1344.9-96.8z"/>
	<path class="st2" d="M1798.2-91.4H1338l457.7,5.8L1798.2-91.4z M1338-91.4l457.7,5.8h-464.5L1338-91.4z"/>
	<path class="st2" d="M1798.2-91.4H1338l457.7,5.8L1798.2-91.4z M1338-91.4l457.7,5.8h-464.5L1338-91.4z"/>
	<path class="st2" d="M2657.6-129.2h-140.5l161.2,48.6L2657.6-129.2z M2517.1-129.2l161.2,48.6h-181.8L2517.1-129.2z"/>
	<path class="st2" d="M2657.6-129.2h-140.5l161.2,48.6L2657.6-129.2z M2517.1-129.2l161.2,48.6h-181.8L2517.1-129.2z"/>
	<path class="st2" d="M1795.6-85.7h-464.5l462.5,5L1795.6-85.7z M1331.1-85.7l462.5,5h-467.8L1331.1-85.7z"/>
	<path class="st2" d="M1795.6-85.7h-464.5l462.5,5L1795.6-85.7z M1331.1-85.7l462.5,5h-467.8L1331.1-85.7z"/>
	<path class="st2" d="M1222.2-129.2H759l442.6,48.6L1222.2-129.2z M759-129.2l442.6,48.6H759V-129.2z"/>
	<path class="st2" d="M1222.2-129.2H759l442.6,48.6L1222.2-129.2z M759-129.2l442.6,48.6H759V-129.2z"/>
	<path class="st2" d="M1444.8-80.6h-118.9l111.4,0.2L1444.8-80.6z M1325.8-80.6l111.4,0.2h-111.6L1325.8-80.6z"/>
	<path class="st2" d="M1444.8-80.6h-118.9l111.4,0.2L1444.8-80.6z M1325.8-80.6l111.4,0.2h-111.6L1325.8-80.6z"/>
	<path class="st2" d="M1437.2-80.4h-111.6l104,0.7L1437.2-80.4z M1325.6-80.4l104,0.7h-104.8L1325.6-80.4z"/>
	<path class="st2" d="M1437.2-80.4h-111.6l104,0.7L1437.2-80.4z M1325.6-80.4l104,0.7h-104.8L1325.6-80.4z"/>
	<path class="st2" d="M1429.6-79.7h-104.8l103.7,0.1L1429.6-79.7z M1324.9-79.7l103.7,0.1h-103.9L1324.9-79.7z"/>
	<path class="st2" d="M1429.6-79.7h-104.8l103.7,0.1L1429.6-79.7z M1324.9-79.7l103.7,0.1h-103.9L1324.9-79.7z"/>
	<path class="st2" d="M1428.6-79.5h-103.9l97.4,1.1L1428.6-79.5z M1324.6-79.5l97.4,1.1h-98.4L1324.6-79.5z"/>
	<path class="st2" d="M1428.6-79.5h-103.9l97.4,1.1L1428.6-79.5z M1324.6-79.5l97.4,1.1h-98.4L1324.6-79.5z"/>
	<path class="st2" d="M1422.1-78.5h-98.4l91,1.7L1422.1-78.5z M1323.7-78.5l91,1.7h-92.5L1323.7-78.5z"/>
	<path class="st2" d="M1422.1-78.5h-98.4l91,1.7L1422.1-78.5z M1323.7-78.5l91,1.7h-92.5L1323.7-78.5z"/>
	<path class="st2" d="M1414.6-76.8h-92.5l85.2,2L1414.6-76.8z M1322.1-76.8l85.2,2h-87.2L1322.1-76.8z"/>
	<path class="st2" d="M1414.6-76.8h-92.5l85.2,2L1414.6-76.8z M1322.1-76.8l85.2,2h-87.2L1322.1-76.8z"/>
	<path class="st2" d="M1407.3-74.7h-87.2l82.7,1.7L1407.3-74.7z M1320.1-74.7l82.7,1.7h-84.2L1320.1-74.7z"/>
	<path class="st2" d="M1407.3-74.7h-87.2l82.7,1.7L1407.3-74.7z M1320.1-74.7l82.7,1.7h-84.2L1320.1-74.7z"/>
	<path class="st2" d="M1402.8-73.1h-84.2l81.6,1L1402.8-73.1z M1318.5-73.1l81.6,1h-82.3L1318.5-73.1z"/>
	<path class="st2" d="M1402.8-73.1h-84.2l81.6,1L1402.8-73.1z M1318.5-73.1l81.6,1h-82.3L1318.5-73.1z"/>
	<path class="st2" d="M1400.1-72.1h-82.3l75.4,3L1400.1-72.1z M1317.8-72.1l75.4,3h-78L1317.8-72.1z"/>
	<path class="st2" d="M1400.1-72.1h-82.3l75.4,3L1400.1-72.1z M1317.8-72.1l75.4,3h-78L1317.8-72.1z"/>
	<path class="st2" d="M1393.2-69.1h-78l72.5,2.8L1393.2-69.1z M1315.2-69.1l72.5,2.8h-74.9L1315.2-69.1z"/>
	<path class="st2" d="M1393.2-69.1h-78l72.5,2.8L1393.2-69.1z M1315.2-69.1l72.5,2.8h-74.9L1315.2-69.1z"/>
	<path class="st2" d="M1387.6-66.3h-74.9l73.7,0.7L1387.6-66.3z M1312.8-66.3l73.7,0.7h-74.2L1312.8-66.3z"/>
	<path class="st2" d="M1387.6-66.3h-74.9l73.7,0.7L1387.6-66.3z M1312.8-66.3l73.7,0.7h-74.2L1312.8-66.3z"/>
	<path class="st2" d="M1386.4-65.6h-74.2l67.6,3.8L1386.4-65.6z M1312.3-65.6l67.6,3.8h-70.6L1312.3-65.6z"/>
	<path class="st2" d="M1386.4-65.6h-74.2l67.6,3.8L1386.4-65.6z M1312.3-65.6l67.6,3.8h-70.6L1312.3-65.6z"/>
	<path class="st2" d="M1379.8-61.8h-70.6l66.8,2.5L1379.8-61.8z M1309.3-61.8l66.8,2.5h-68.8L1309.3-61.8z"/>
	<path class="st2" d="M1379.8-61.8h-70.6l66.8,2.5L1379.8-61.8z M1309.3-61.8l66.8,2.5h-68.8L1309.3-61.8z"/>
	<path class="st2" d="M1376.1-59.3h-68.8l66.2,1.8L1376.1-59.3z M1307.4-59.3l66.2,1.8h-67.4L1307.4-59.3z"/>
	<path class="st2" d="M1376.1-59.3h-68.8l66.2,1.8L1376.1-59.3z M1307.4-59.3l66.2,1.8h-67.4L1307.4-59.3z"/>
	<path class="st2" d="M1782.3-54.2h-337.6l337.4,0.2L1782.3-54.2z M1444.8-54.2l337.4,0.2h-344L1444.8-54.2z"/>
	<path class="st2" d="M1782.3-54.2h-337.6l337.4,0.2L1782.3-54.2z M1444.8-54.2l337.4,0.2h-344L1444.8-54.2z"/>
	<path class="st2" d="M1782.2-54h-344l343.8,0.7L1782.2-54z M1438.2-54l343.8,0.7h-350.3L1438.2-54z"/>
	<path class="st2" d="M1782.2-54h-344l343.8,0.7L1782.2-54z M1438.2-54l343.8,0.7h-350.3L1438.2-54z"/>
	<path class="st2" d="M1373.6-57.5h-67.4l61.3,4.7L1373.6-57.5z M1306.2-57.5l61.3,4.7h-64.6L1306.2-57.5z"/>
	<path class="st2" d="M1373.6-57.5h-67.4l61.3,4.7L1373.6-57.5z M1306.2-57.5l61.3,4.7h-64.6L1306.2-57.5z"/>
	<path class="st2" d="M1782-53.3h-350.3l349.8,1.2L1782-53.3z M1431.7-53.3l349.8,1.2h-356.4L1431.7-53.3z"/>
	<path class="st2" d="M1782-53.3h-350.3l349.8,1.2L1782-53.3z M1431.7-53.3l349.8,1.2h-356.4L1431.7-53.3z"/>
	<path class="st2" d="M1367.5-52.8h-64.6l63.6,0.8L1367.5-52.8z M1302.9-52.8l63.6,0.8h-64.2L1302.9-52.8z"/>
	<path class="st2" d="M1367.5-52.8h-64.6l63.6,0.8L1367.5-52.8z M1302.9-52.8l63.6,0.8h-64.2L1302.9-52.8z"/>
	<path class="st2" d="M1781.5-52.1h-356.4l355.7,1.6L1781.5-52.1z M1425.1-52.1l355.7,1.6h-362L1425.1-52.1z"/>
	<path class="st2" d="M1781.5-52.1h-356.4l355.7,1.6L1781.5-52.1z M1425.1-52.1l355.7,1.6h-362L1425.1-52.1z"/>
	<path class="st2" d="M1780.8-50.5h-362l361.2,2L1780.8-50.5z M1418.7-50.5l361.2,2h-367.6L1418.7-50.5z"/>
	<path class="st2" d="M1780.8-50.5h-362l361.2,2L1780.8-50.5z M1418.7-50.5l361.2,2h-367.6L1418.7-50.5z"/>
	<path class="st2" d="M1366.5-51.9h-64.2l59.5,4.2L1366.5-51.9z M1302.3-51.9l59.5,4.2h-62L1302.3-51.9z"/>
	<path class="st2" d="M1366.5-51.9h-64.2l59.5,4.2L1366.5-51.9z M1302.3-51.9l59.5,4.2h-62L1302.3-51.9z"/>
	<path class="st2" d="M1779.9-48.5h-367.6l366.5,2.5L1779.9-48.5z M1412.4-48.5l366.5,2.5h-372.6L1412.4-48.5z"/>
	<path class="st2" d="M1779.9-48.5h-367.6l366.5,2.5L1779.9-48.5z M1412.4-48.5l366.5,2.5h-372.6L1412.4-48.5z"/>
	<path class="st2" d="M1361.8-47.7h-62l58.6,3.4L1361.8-47.7z M1299.8-47.7l58.6,3.4h-60.7L1299.8-47.7z"/>
	<path class="st2" d="M1361.8-47.7h-62l58.6,3.4L1361.8-47.7z M1299.8-47.7l58.6,3.4h-60.7L1299.8-47.7z"/>
	<path class="st2" d="M1778.8-45.9h-372.6l371.4,2.9L1778.8-45.9z M1406.2-45.9l371.4,2.9h-377.3L1406.2-45.9z"/>
	<path class="st2" d="M1778.8-45.9h-372.6l371.4,2.9L1778.8-45.9z M1406.2-45.9l371.4,2.9h-377.3L1406.2-45.9z"/>
	<path class="st2" d="M1358.4-44.4h-60.7l58.8,1.9L1358.4-44.4z M1297.6-44.4l58.8,1.9h-59.8L1297.6-44.4z"/>
	<path class="st2" d="M1358.4-44.4h-60.7l58.8,1.9L1358.4-44.4z M1297.6-44.4l58.8,1.9h-59.8L1297.6-44.4z"/>
	<path class="st2" d="M1777.6-43.1h-377.3l375.8,3.2L1777.6-43.1z M1400.4-43.1l375.8,3.2h-381.6L1400.4-43.1z"/>
	<path class="st2" d="M1777.6-43.1h-377.3l375.8,3.2L1777.6-43.1z M1400.4-43.1l375.8,3.2h-381.6L1400.4-43.1z"/>
	<path class="st2" d="M1356.4-42.5h-59.8l54.7,5.8L1356.4-42.5z M1296.7-42.5l54.7,5.8h-57.8L1296.7-42.5z"/>
	<path class="st2" d="M1356.4-42.5h-59.8l54.7,5.8L1356.4-42.5z M1296.7-42.5l54.7,5.8h-57.8L1296.7-42.5z"/>
	<path class="st2" d="M1351.4-36.7h-57.8l57.7,0.1L1351.4-36.7z M1293.6-36.7l57.7,0.1h-57.8L1293.6-36.7z"/>
	<path class="st2" d="M1351.4-36.7h-57.8l57.7,0.1L1351.4-36.7z M1293.6-36.7l57.7,0.1h-57.8L1293.6-36.7z"/>
	<path class="st2" d="M1776.2-39.8h-381.6l380,3.7L1776.2-39.8z M1394.6-39.8l380,3.7h-385.6L1394.6-39.8z"/>
	<path class="st2" d="M1776.2-39.8h-381.6l380,3.7L1776.2-39.8z M1394.6-39.8l380,3.7h-385.6L1394.6-39.8z"/>
	<path class="st2" d="M1774.6-36.1h-385.6L1773-32L1774.6-36.1z M1389.1-36.1L1773-32h-389L1389.1-36.1z"/>
	<path class="st2" d="M1774.6-36.1h-385.6L1773-32L1774.6-36.1z M1389.1-36.1L1773-32h-389L1389.1-36.1z"/>
	<path class="st2" d="M1351.3-36.6h-57.8l53.3,5.9L1351.3-36.6z M1293.4-36.6l53.3,5.9h-56L1293.4-36.6z"/>
	<path class="st2" d="M1351.3-36.6h-57.8l53.3,5.9L1351.3-36.6z M1293.4-36.6l53.3,5.9h-56L1293.4-36.6z"/>
	<path class="st2" d="M1346.7-30.7h-56l54.6,2.2L1346.7-30.7z M1290.7-30.7l54.6,2.2h-55.7L1290.7-30.7z"/>
	<path class="st2" d="M1346.7-30.7h-56l54.6,2.2L1346.7-30.7z M1290.7-30.7l54.6,2.2h-55.7L1290.7-30.7z"/>
	<path class="st2" d="M1773-32h-389l387.1,4.4L1773-32z M1383.9-32l387.1,4.4h-392L1383.9-32z"/>
	<path class="st2" d="M1773-32h-389l387.1,4.4L1773-32z M1383.9-32l387.1,4.4h-392L1383.9-32z"/>
	<path class="st2" d="M1345.3-28.5h-55.7l52.8,4.2L1345.3-28.5z M1289.6-28.5l52.8,4.2h-54.5L1289.6-28.5z"/>
	<path class="st2" d="M1345.3-28.5h-55.7l52.8,4.2L1345.3-28.5z M1289.6-28.5l52.8,4.2h-54.5L1289.6-28.5z"/>
	<path class="st2" d="M1771-27.6h-392l390,4.8L1771-27.6z M1379-27.6l390,4.8h-394.7L1379-27.6z"/>
	<path class="st2" d="M1771-27.6h-392l390,4.8L1771-27.6z M1379-27.6l390,4.8h-394.7L1379-27.6z"/>
	<path class="st2" d="M1342.4-24.3h-54.5l52.1,4.1L1342.4-24.3z M1287.9-24.3l52.1,4.1h-53.8L1287.9-24.3z"/>
	<path class="st2" d="M1342.4-24.3h-54.5l52.1,4.1L1342.4-24.3z M1287.9-24.3l52.1,4.1h-53.8L1287.9-24.3z"/>
	<path class="st2" d="M1340-20.3h-53.8l52.3,2.4L1340-20.3z M1286.2-20.3l52.3,2.4h-53.3L1286.2-20.3z"/>
	<path class="st2" d="M1340-20.3h-53.8l52.3,2.4L1340-20.3z M1286.2-20.3l52.3,2.4h-53.3L1286.2-20.3z"/>
	<path class="st2" d="M1769-22.8h-394.7l392.5,5L1769-22.8z M1374.3-22.8l392.5,5h-396.7L1374.3-22.8z"/>
	<path class="st2" d="M1769-22.8h-394.7l392.5,5L1769-22.8z M1374.3-22.8l392.5,5h-396.7L1374.3-22.8z"/>
	<path class="st2" d="M1766.8-17.7h-396.7l394.4,5.3L1766.8-17.7z M1370.1-17.7l394.4,5.3h-398.3L1370.1-17.7z"/>
	<path class="st2" d="M1766.8-17.7h-396.7l394.4,5.3L1766.8-17.7z M1370.1-17.7l394.4,5.3h-398.3L1370.1-17.7z"/>
	<path class="st2" d="M1338.6-17.9h-53.3l50.3,6L1338.6-17.9z M1285.3-17.9l50.3,6h-52.3L1285.3-17.9z"/>
	<path class="st2" d="M1338.6-17.9h-53.3l50.3,6L1338.6-17.9z M1285.3-17.9l50.3,6h-52.3L1285.3-17.9z"/>
	<path class="st2" d="M1335.6-11.9h-52.3l51.8,0.8L1335.6-11.9z M1283.2-11.9l51.8,0.8H1283L1283.2-11.9z"/>
	<path class="st2" d="M1335.6-11.9h-52.3l51.8,0.8L1335.6-11.9z M1283.2-11.9l51.8,0.8H1283L1283.2-11.9z"/>
	<path class="st2" d="M1764.6-12.5h-398.3l395.9,5.6L1764.6-12.5z M1366.3-12.5l395.9,5.6h-399.5L1366.3-12.5z"/>
	<path class="st2" d="M1764.6-12.5h-398.3l395.9,5.6L1764.6-12.5z M1366.3-12.5l395.9,5.6h-399.5L1366.3-12.5z"/>
	<path class="st2" d="M1762.2-6.8h-399.5l399,1.3L1762.2-6.8z M1362.7-6.8l399,1.3h-399.6L1362.7-6.8z"/>
	<path class="st2" d="M1762.2-6.8h-399.5l399,1.3L1762.2-6.8z M1362.7-6.8l399,1.3h-399.6L1362.7-6.8z"/>
	<path class="st2" d="M1190.2-54.2H834.1l335.5,48.7L1190.2-54.2z M834.1-54.2l335.5,48.7H834.1V-54.2z"/>
	<path class="st2" d="M1190.2-54.2H834.1l335.5,48.7L1190.2-54.2z M834.1-54.2l335.5,48.7H834.1V-54.2z"/>
	<path class="st2" d="M1444.8-5.5h-82.7l78.1,0.2L1444.8-5.5z M1362.1-5.5l78.1,0.2H1362L1362.1-5.5z"/>
	<path class="st2" d="M1444.8-5.5h-82.7l78.1,0.2L1444.8-5.5z M1362.1-5.5l78.1,0.2H1362L1362.1-5.5z"/>
	<path class="st2" d="M1440.2-5.3H1362l73.6,0.6L1440.2-5.3z M1362-5.3l73.6,0.6h-73.9L1362-5.3z"/>
	<path class="st2" d="M1440.2-5.3H1362l73.6,0.6L1440.2-5.3z M1362-5.3l73.6,0.6h-73.9L1362-5.3z"/>
	<path class="st2" d="M1335.1-11H1283l49.1,7L1335.1-11z M1283-11l49.1,7H1281L1283-11z"/>
	<path class="st2" d="M1335.1-11H1283l49.1,7L1335.1-11z M1283-11l49.1,7H1281L1283-11z"/>
	<path class="st2" d="M1435.5-4.7h-73.9l69.4,1.2L1435.5-4.7z M1361.6-4.7l69.4,1.2h-70L1361.6-4.7z"/>
	<path class="st2" d="M1435.5-4.7h-73.9l69.4,1.2L1435.5-4.7z M1361.6-4.7l69.4,1.2h-70L1361.6-4.7z"/>
	<path class="st2" d="M1332.1-4.1H1281l50.9,0.7L1332.1-4.1z M1281-4.1l50.9,0.7h-51.1L1281-4.1z"/>
	<path class="st2" d="M1332.1-4.1H1281l50.9,0.7L1332.1-4.1z M1281-4.1l50.9,0.7h-51.1L1281-4.1z"/>
	<path class="st2" d="M1431-3.5h-70l65.6,1.7L1431-3.5z M1361-3.5l65.6,1.7H1360L1361-3.5z"/>
	<path class="st2" d="M1431-3.5h-70l65.6,1.7L1431-3.5z M1361-3.5l65.6,1.7H1360L1361-3.5z"/>
	<path class="st2" d="M1426.6-1.8H1360l64.8,0.8L1426.6-1.8z M1360-1.8l64.8,0.8h-65.2L1360-1.8z"/>
	<path class="st2" d="M1426.6-1.8H1360l64.8,0.8L1426.6-1.8z M1360-1.8l64.8,0.8h-65.2L1360-1.8z"/>
	<path class="st2" d="M1424.8-0.9h-65.2l62.8,1.2L1424.8-0.9z M1359.7-0.9l62.8,1.2h-63.4L1359.7-0.9z"/>
	<path class="st2" d="M1424.8-0.9h-65.2l62.8,1.2L1424.8-0.9z M1359.7-0.9l62.8,1.2h-63.4L1359.7-0.9z"/>
	<path class="st2" d="M1422.4,0.3h-63.4l59.4,2.4L1422.4,0.3z M1359.1,0.3l59.4,2.4H1358L1359.1,0.3z"/>
	<path class="st2" d="M1422.4,0.3h-63.4l59.4,2.4L1422.4,0.3z M1359.1,0.3l59.4,2.4H1358L1359.1,0.3z"/>
	<path class="st2" d="M1331.8-3.3h-51.1l48.7,6.5L1331.8-3.3z M1280.7-3.3l48.7,6.5h-50.3L1280.7-3.3z"/>
	<path class="st2" d="M1331.8-3.3h-51.1l48.7,6.5L1331.8-3.3z M1280.7-3.3l48.7,6.5h-50.3L1280.7-3.3z"/>
	<path class="st2" d="M1418.5,2.7H1358l57.4,2.4L1418.5,2.7z M1358,2.7l57.4,2.4h-58.4L1358,2.7z"/>
	<path class="st2" d="M1418.5,2.7H1358l57.4,2.4L1418.5,2.7z M1358,2.7l57.4,2.4h-58.4L1358,2.7z"/>
	<path class="st2" d="M1329.4,3.1h-50.3l49.7,2.2L1329.4,3.1z M1279.2,3.1l49.7,2.2h-50.2L1279.2,3.1z"/>
	<path class="st2" d="M1329.4,3.1h-50.3l49.7,2.2L1329.4,3.1z M1279.2,3.1l49.7,2.2h-50.2L1279.2,3.1z"/>
	<path class="st2" d="M1415.4,5.1h-58.4l57.8,0.5L1415.4,5.1z M1356.9,5.1l57.8,0.5h-58L1356.9,5.1z"/>
	<path class="st2" d="M1415.4,5.1h-58.4l57.8,0.5L1415.4,5.1z M1356.9,5.1l57.8,0.5h-58L1356.9,5.1z"/>
	<path class="st2" d="M1414.8,5.5h-58l54.6,3.2L1414.8,5.5z M1356.8,5.5l54.6,3.2h-55.8L1356.8,5.5z"/>
	<path class="st2" d="M1414.8,5.5h-58l54.6,3.2L1414.8,5.5z M1356.8,5.5l54.6,3.2h-55.8L1356.8,5.5z"/>
	<path class="st2" d="M1328.8,5.3h-50.2l48.7,5.2L1328.8,5.3z M1278.7,5.3l48.7,5.2h-49.7L1278.7,5.3z"/>
	<path class="st2" d="M1328.8,5.3h-50.2l48.7,5.2L1328.8,5.3z M1278.7,5.3l48.7,5.2h-49.7L1278.7,5.3z"/>
	<path class="st2" d="M1411.4,8.8h-55.8l53.6,2.5L1411.4,8.8z M1355.6,8.8l53.6,2.5h-54.6L1355.6,8.8z"/>
	<path class="st2" d="M1411.4,8.8h-55.8l53.6,2.5L1411.4,8.8z M1355.6,8.8l53.6,2.5h-54.6L1355.6,8.8z"/>
	<path class="st2" d="M1409.2,11.3h-54.6l53.6,1.1L1409.2,11.3z M1354.6,11.3l53.6,1.1h-53.9L1354.6,11.3z"/>
	<path class="st2" d="M1409.2,11.3h-54.6l53.6,1.1L1409.2,11.3z M1354.6,11.3l53.6,1.1h-53.9L1354.6,11.3z"/>
	<path class="st2" d="M1327.4,10.5h-49.7l48.8,3.6L1327.4,10.5z M1277.7,10.5l48.8,3.6H1277L1277.7,10.5z"/>
	<path class="st2" d="M1327.4,10.5h-49.7l48.8,3.6L1327.4,10.5z M1277.7,10.5l48.8,3.6H1277L1277.7,10.5z"/>
	<path class="st2" d="M1408.3,12.4h-53.9l51.2,3.8L1408.3,12.4z M1354.4,12.4l51.2,3.8h-52.3L1354.4,12.4z"/>
	<path class="st2" d="M1408.3,12.4h-53.9l51.2,3.8L1408.3,12.4z M1354.4,12.4l51.2,3.8h-52.3L1354.4,12.4z"/>
	<path class="st2" d="M1405.6,16.2h-52.3l51.5,1.4L1405.6,16.2z M1353.3,16.2l51.5,1.4h-52L1353.3,16.2z"/>
	<path class="st2" d="M1405.6,16.2h-52.3l51.5,1.4L1405.6,16.2z M1353.3,16.2l51.5,1.4h-52L1353.3,16.2z"/>
	<path class="st2" d="M1326.6,14.1H1277l48.7,3.8L1326.6,14.1z M1277,14.1l48.7,3.8h-49.2L1277,14.1z"/>
	<path class="st2" d="M1326.6,14.1H1277l48.7,3.8L1326.6,14.1z M1277,14.1l48.7,3.8h-49.2L1277,14.1z"/>
	<path class="st2" d="M1404.8,17.7h-52l50.5,2.6L1404.8,17.7z M1352.8,17.7l50.5,2.6h-51.1L1352.8,17.7z"/>
	<path class="st2" d="M1404.8,17.7h-52l50.5,2.6L1404.8,17.7z M1352.8,17.7l50.5,2.6h-51.1L1352.8,17.7z"/>
	<path class="st2" d="M1325.7,17.9h-49.2l48.4,4.9L1325.7,17.9z M1276.5,17.9l48.4,4.9h-49.1L1276.5,17.9z"/>
	<path class="st2" d="M1325.7,17.9h-49.2l48.4,4.9L1325.7,17.9z M1276.5,17.9l48.4,4.9h-49.1L1276.5,17.9z"/>
	<path class="st2" d="M1403.4,20.3h-51.1l49.4,3.8L1403.4,20.3z M1352.2,20.3l49.4,3.8h-50.2L1352.2,20.3z"/>
	<path class="st2" d="M1403.4,20.3h-51.1l49.4,3.8L1403.4,20.3z M1352.2,20.3l49.4,3.8h-50.2L1352.2,20.3z"/>
	<path class="st2" d="M1401.7,24.1h-50.2l50,0.5L1401.7,24.1z M1351.5,24.1l50,0.5h-50.2L1351.5,24.1z"/>
	<path class="st2" d="M1401.7,24.1h-50.2l50,0.5L1401.7,24.1z M1351.5,24.1l50,0.5h-50.2L1351.5,24.1z"/>
	<path class="st2" d="M1324.9,22.8h-49.1l48.7,2.5L1324.9,22.8z M1275.8,22.8l48.7,2.5h-48.8L1275.8,22.8z"/>
	<path class="st2" d="M1324.9,22.8h-49.1l48.7,2.5L1324.9,22.8z M1275.8,22.8l48.7,2.5h-48.8L1275.8,22.8z"/>
	<path class="st2" d="M1401.6,24.6h-50.2l48.7,4.4L1401.6,24.6z M1351.4,24.6l48.7,4.4h-49.3L1351.4,24.6z"/>
	<path class="st2" d="M1401.6,24.6h-50.2l48.7,4.4L1401.6,24.6z M1351.4,24.6l48.7,4.4h-49.3L1351.4,24.6z"/>
	<path class="st2" d="M1400.1,29.1h-49.3l49,1.7L1400.1,29.1z M1350.8,29.1l49,1.7h-49.2L1350.8,29.1z"/>
	<path class="st2" d="M1400.1,29.1h-49.3l49,1.7L1400.1,29.1z M1350.8,29.1l49,1.7h-49.2L1350.8,29.1z"/>
	<path class="st2" d="M1324.5,25.3h-48.8l48.2,6.4L1324.5,25.3z M1275.7,25.3l48.2,6.4h-48.7L1275.7,25.3z"/>
	<path class="st2" d="M1324.5,25.3h-48.8l48.2,6.4L1324.5,25.3z M1275.7,25.3l48.2,6.4h-48.7L1275.7,25.3z"/>
	<path class="st2" d="M1323.9,31.7h-48.7l48.6,1.3L1323.9,31.7z M1275.2,31.7l48.6,1.3h-48.7L1275.2,31.7z"/>
	<path class="st2" d="M1323.9,31.7h-48.7l48.6,1.3L1323.9,31.7z M1275.2,31.7l48.6,1.3h-48.7L1275.2,31.7z"/>
	<path class="st2" d="M1399.8,30.7h-49.2l48.6,2.9L1399.8,30.7z M1350.6,30.7l48.6,2.9h-48.8L1350.6,30.7z"/>
	<path class="st2" d="M1399.8,30.7h-49.2l48.6,2.9L1399.8,30.7z M1350.6,30.7l48.6,2.9h-48.8L1350.6,30.7z"/>
	<path class="st2" d="M1399.2,33.6h-48.8l48.5,3.7L1399.2,33.6z M1350.3,33.6l48.5,3.7h-48.7L1350.3,33.6z"/>
	<path class="st2" d="M1399.2,33.6h-48.8l48.5,3.7L1399.2,33.6z M1350.3,33.6l48.5,3.7h-48.7L1350.3,33.6z"/>
	<path class="st2" d="M2607.9-54.2h-41l79.9,91.7L2607.9-54.2z M2566.9-54.2l79.9,91.7h-118.9L2566.9-54.2z"/>
	<path class="st2" d="M2607.9-54.2h-41l79.9,91.7L2607.9-54.2z M2566.9-54.2l79.9,91.7h-118.9L2566.9-54.2z"/>
	<path class="st2" d="M1398.8,37.3h-48.7l48.6,1L1398.8,37.3z M1350.1,37.3l48.6,1h-48.6V37.3z"/>
	<path class="st2" d="M1398.8,37.3h-48.7l48.6,1L1398.8,37.3z M1350.1,37.3l48.6,1h-48.6V37.3z"/>
	<path class="st2" d="M1323.8,33h-48.7l48.5,7.6L1323.8,33z M1275.1,33l48.5,7.6H1275L1275.1,33z"/>
	<path class="st2" d="M1323.8,33h-48.7l48.5,7.6L1323.8,33z M1275.1,33l48.5,7.6H1275L1275.1,33z"/>
	<path class="st2" d="M1398.7,38.3h-48.6l48.6,4.7V38.3z M1350.1,38.3l48.6,4.7h-48.6V38.3z"/>
	<path class="st2" d="M1398.7,38.3h-48.6l48.6,4.7V38.3z M1350.1,38.3l48.6,4.7h-48.6V38.3z"/>
	<path class="st2" d="M1398.7,43h-48.6l48.7,1L1398.7,43z M1350.1,43l48.7,1h-48.7V43z"/>
	<path class="st2" d="M1398.7,43h-48.6l48.7,1L1398.7,43z M1350.1,43l48.7,1h-48.7V43z"/>
	<path class="st2" d="M1398.8,43.9h-48.7l49.1,3.6L1398.8,43.9z M1350.1,43.9l49.1,3.6h-48.8L1350.1,43.9z"/>
	<path class="st2" d="M1398.8,43.9h-48.7l49.1,3.6L1398.8,43.9z M1350.1,43.9l49.1,3.6h-48.8L1350.1,43.9z"/>
	<path class="st2" d="M1323.6,40.6H1275l48.8,7.7L1323.6,40.6z M1275,40.6l48.8,7.7h-48.7L1275,40.6z"/>
	<path class="st2" d="M1323.6,40.6H1275l48.8,7.7L1323.6,40.6z M1275,40.6l48.8,7.7h-48.7L1275,40.6z"/>
	<path class="st2" d="M1323.8,48.3h-48.7l48.8,1.2L1323.8,48.3z M1275.1,48.3l48.8,1.2h-48.7L1275.1,48.3z"/>
	<path class="st2" d="M1323.8,48.3h-48.7l48.8,1.2L1323.8,48.3z M1275.1,48.3l48.8,1.2h-48.7L1275.1,48.3z"/>
	<path class="st2" d="M1399.2,47.5h-48.8l49.4,3L1399.2,47.5z M1350.3,47.5l49.4,3h-49.2L1350.3,47.5z"/>
	<path class="st2" d="M1399.2,47.5h-48.8l49.4,3L1399.2,47.5z M1350.3,47.5l49.4,3h-49.2L1350.3,47.5z"/>
	<path class="st2" d="M1399.8,50.5h-49.2l49.6,1.7L1399.8,50.5z M1350.6,50.5l49.6,1.7h-49.3L1350.6,50.5z"/>
	<path class="st2" d="M1399.8,50.5h-49.2l49.6,1.7L1399.8,50.5z M1350.6,50.5l49.6,1.7h-49.3L1350.6,50.5z"/>
	<path class="st2" d="M1323.9,49.5h-48.7l49.3,6.4L1323.9,49.5z M1275.2,49.5l49.3,6.4h-48.8L1275.2,49.5z"/>
	<path class="st2" d="M1323.9,49.5h-48.7l49.3,6.4L1323.9,49.5z M1275.2,49.5l49.3,6.4h-48.8L1275.2,49.5z"/>
	<path class="st2" d="M1400.1,52.2h-49.3l50.8,4.4L1400.1,52.2z M1350.8,52.2l50.8,4.4h-50.2L1350.8,52.2z"/>
	<path class="st2" d="M1400.1,52.2h-49.3l50.8,4.4L1400.1,52.2z M1350.8,52.2l50.8,4.4h-50.2L1350.8,52.2z"/>
	<path class="st2" d="M1401.6,56.7h-50.2l50.3,0.4L1401.6,56.7z M1351.4,56.7l50.3,0.4h-50.2L1351.4,56.7z"/>
	<path class="st2" d="M1401.6,56.7h-50.2l50.3,0.4L1401.6,56.7z M1351.4,56.7l50.3,0.4h-50.2L1351.4,56.7z"/>
	<path class="st2" d="M1324.5,55.8h-48.8l49.2,2.5L1324.5,55.8z M1275.7,55.8l49.2,2.5h-49.1L1275.7,55.8z"/>
	<path class="st2" d="M1324.5,55.8h-48.8l49.2,2.5L1324.5,55.8z M1275.7,55.8l49.2,2.5h-49.1L1275.7,55.8z"/>
	<path class="st2" d="M1401.7,57h-50.2l51.8,3.8L1401.7,57z M1351.5,57l51.8,3.8h-51.1L1351.5,57z"/>
	<path class="st2" d="M1401.7,57h-50.2l51.8,3.8L1401.7,57z M1351.5,57l51.8,3.8h-51.1L1351.5,57z"/>
	<path class="st2" d="M1324.9,58.3h-49.1l49.9,4.9L1324.9,58.3z M1275.8,58.3l49.9,4.9h-49.2L1275.8,58.3z"/>
	<path class="st2" d="M1324.9,58.3h-49.1l49.9,4.9L1324.9,58.3z M1275.8,58.3l49.9,4.9h-49.2L1275.8,58.3z"/>
	<path class="st2" d="M1403.4,60.9h-51.1l52.6,2.6L1403.4,60.9z M1352.2,60.9l52.6,2.6h-52L1352.2,60.9z"/>
	<path class="st2" d="M1403.4,60.9h-51.1l52.6,2.6L1403.4,60.9z M1352.2,60.9l52.6,2.6h-52L1352.2,60.9z"/>
	<path class="st2" d="M1404.8,63.5h-52l52.8,1.6L1404.8,63.5z M1352.8,63.5l52.8,1.6h-52.3L1352.8,63.5z"/>
	<path class="st2" d="M1404.8,63.5h-52l52.8,1.6L1404.8,63.5z M1352.8,63.5l52.8,1.6h-52.3L1352.8,63.5z"/>
	<path class="st2" d="M1325.7,63.3h-49.2l50,4L1325.7,63.3z M1276.5,63.3l50,4H1277L1276.5,63.3z"/>
	<path class="st2" d="M1325.7,63.3h-49.2l50,4L1325.7,63.3z M1276.5,63.3l50,4H1277L1276.5,63.3z"/>
	<path class="st2" d="M1405.6,65.1h-52.3l55,3.8L1405.6,65.1z M1353.3,65.1l55,3.8h-53.9L1353.3,65.1z"/>
	<path class="st2" d="M1405.6,65.1h-52.3l55,3.8L1405.6,65.1z M1353.3,65.1l55,3.8h-53.9L1353.3,65.1z"/>
	<path class="st2" d="M1408.3,68.9h-53.9l54.8,1L1408.3,68.9z M1354.4,68.9l54.8,1h-54.6L1354.4,68.9z"/>
	<path class="st2" d="M1408.3,68.9h-53.9l54.8,1L1408.3,68.9z M1354.4,68.9l54.8,1h-54.6L1354.4,68.9z"/>
	<path class="st2" d="M1326.6,67.2H1277l50.4,3.5L1326.6,67.2z M1277,67.2l50.4,3.5h-49.7L1277,67.2z"/>
	<path class="st2" d="M1326.6,67.2H1277l50.4,3.5L1326.6,67.2z M1277,67.2l50.4,3.5h-49.7L1277,67.2z"/>
	<path class="st2" d="M1409.2,69.9h-54.6l56.8,2.5L1409.2,69.9z M1354.6,69.9l56.8,2.5h-55.8L1354.6,69.9z"/>
	<path class="st2" d="M1409.2,69.9h-54.6l56.8,2.5L1409.2,69.9z M1354.6,69.9l56.8,2.5h-55.8L1354.6,69.9z"/>
	<path class="st2" d="M1411.4,72.4h-55.8l59.2,3.2L1411.4,72.4z M1355.6,72.4l59.2,3.2h-58L1355.6,72.4z"/>
	<path class="st2" d="M1411.4,72.4h-55.8l59.2,3.2L1411.4,72.4z M1355.6,72.4l59.2,3.2h-58L1355.6,72.4z"/>
	<path class="st2" d="M1327.4,70.7h-49.7l51.1,5.2L1327.4,70.7z M1277.7,70.7l51.1,5.2h-50.2L1277.7,70.7z"/>
	<path class="st2" d="M1327.4,70.7h-49.7l51.1,5.2L1327.4,70.7z M1277.7,70.7l51.1,5.2h-50.2L1277.7,70.7z"/>
	<path class="st2" d="M1414.8,75.6h-58l58.6,0.5L1414.8,75.6z M1356.8,75.6l58.6,0.5h-58.4L1356.8,75.6z"/>
	<path class="st2" d="M1414.8,75.6h-58l58.6,0.5L1414.8,75.6z M1356.8,75.6l58.6,0.5h-58.4L1356.8,75.6z"/>
	<path class="st2" d="M1328.8,75.9h-50.2l50.8,2.2L1328.8,75.9z M1278.7,75.9l50.8,2.2h-50.3L1278.7,75.9z"/>
	<path class="st2" d="M1328.8,75.9h-50.2l50.8,2.2L1328.8,75.9z M1278.7,75.9l50.8,2.2h-50.3L1278.7,75.9z"/>
	<path class="st2" d="M1415.4,76.1h-58.4l61.6,2.4L1415.4,76.1z M1356.9,76.1l61.6,2.4H1358L1356.9,76.1z"/>
	<path class="st2" d="M1415.4,76.1h-58.4l61.6,2.4L1415.4,76.1z M1356.9,76.1l61.6,2.4H1358L1356.9,76.1z"/>
	<path class="st2" d="M1418.5,78.5H1358l64.4,2.4L1418.5,78.5z M1358,78.5l64.4,2.4h-63.4L1358,78.5z"/>
	<path class="st2" d="M1418.5,78.5H1358l64.4,2.4L1418.5,78.5z M1358,78.5l64.4,2.4h-63.4L1358,78.5z"/>
	<path class="st2" d="M1422.4,80.9h-63.4l65.8,1.2L1422.4,80.9z M1359.1,80.9l65.8,1.2h-65.2L1359.1,80.9z"/>
	<path class="st2" d="M1422.4,80.9h-63.4l65.8,1.2L1422.4,80.9z M1359.1,80.9l65.8,1.2h-65.2L1359.1,80.9z"/>
	<path class="st2" d="M1424.8,82.1h-65.2l67,1L1424.8,82.1z M1359.7,82.1l67,1H1360L1359.7,82.1z"/>
	<path class="st2" d="M1424.8,82.1h-65.2l67,1L1424.8,82.1z M1359.7,82.1l67,1H1360L1359.7,82.1z"/>
	<path class="st2" d="M1329.4,78h-50.3l52.7,6.5L1329.4,78z M1279.2,78l52.7,6.5h-51.1L1279.2,78z"/>
	<path class="st2" d="M1329.4,78h-50.3l52.7,6.5L1329.4,78z M1279.2,78l52.7,6.5h-51.1L1279.2,78z"/>
	<path class="st2" d="M1426.6,83.1H1360l70.9,1.6L1426.6,83.1z M1360,83.1l70.9,1.6h-70L1360,83.1z"/>
	<path class="st2" d="M1426.6,83.1H1360l70.9,1.6L1426.6,83.1z M1360,83.1l70.9,1.6h-70L1360,83.1z"/>
	<path class="st2" d="M1331.8,84.5h-51.1l51.4,0.7L1331.8,84.5z M1280.7,84.5l51.4,0.7H1281L1280.7,84.5z"/>
	<path class="st2" d="M1331.8,84.5h-51.1l51.4,0.7L1331.8,84.5z M1280.7,84.5l51.4,0.7H1281L1280.7,84.5z"/>
	<path class="st2" d="M1431,84.6h-70l74.5,1.2L1431,84.6z M1361,84.6l74.5,1.2h-73.9L1361,84.6z"/>
	<path class="st2" d="M1431,84.6h-70l74.5,1.2L1431,84.6z M1361,84.6l74.5,1.2h-73.9L1361,84.6z"/>
	<path class="st2" d="M1435.5,85.8h-73.9l78.6,0.7L1435.5,85.8z M1361.6,85.8l78.6,0.7H1362L1361.6,85.8z"/>
	<path class="st2" d="M1435.5,85.8h-73.9l78.6,0.7L1435.5,85.8z M1361.6,85.8l78.6,0.7H1362L1361.6,85.8z"/>
	<path class="st2" d="M1440.2,86.5H1362l82.8,0.2L1440.2,86.5z M1362,86.5l82.8,0.2h-82.7L1362,86.5z"/>
	<path class="st2" d="M1440.2,86.5H1362l82.8,0.2L1440.2,86.5z M1362,86.5l82.8,0.2h-82.7L1362,86.5z"/>
	<path class="st2" d="M882.7-5.5h-48.6l48.6,92.3V-5.5z M834.1-5.5l48.6,92.3h-48.6V-5.5z"/>
	<path class="st2" d="M882.7-5.5h-48.6l48.6,92.3V-5.5z M834.1-5.5l48.6,92.3h-48.6V-5.5z"/>
	<path class="st2" d="M1644.3,86.8h-282.2l291.1,0.2L1644.3,86.8z M1362.1,86.8l291.1,0.2h-291L1362.1,86.8z"/>
	<path class="st2" d="M1644.3,86.8h-282.2l291.1,0.2L1644.3,86.8z M1362.1,86.8l291.1,0.2h-291L1362.1,86.8z"/>
	<path class="st2" d="M1653.2,87h-291l299.9,0.6L1653.2,87z M1362.2,87l299.9,0.6h-299.5L1362.2,87z"/>
	<path class="st2" d="M1653.2,87h-291l299.9,0.6L1653.2,87z M1362.2,87l299.9,0.6h-299.5L1362.2,87z"/>
	<path class="st2" d="M1662.1,87.6h-299.5l301.8,0.4L1662.1,87.6z M1362.6,87.6l301.8,0.4h-301.7L1362.6,87.6z"/>
	<path class="st2" d="M1662.1,87.6h-299.5l301.8,0.4L1662.1,87.6z M1362.6,87.6l301.8,0.4h-301.7L1362.6,87.6z"/>
	<path class="st2" d="M1664.4,88h-301.7l308.2,0.8L1664.4,88z M1362.7,88l308.2,0.8h-307.6L1362.7,88z"/>
	<path class="st2" d="M1664.4,88h-301.7l308.2,0.8L1664.4,88z M1362.7,88l308.2,0.8h-307.6L1362.7,88z"/>
	<path class="st2" d="M1670.8,88.8h-307.6l316.3,1.7L1670.8,88.8z M1363.3,88.8l316.3,1.7h-315.4L1363.3,88.8z"/>
	<path class="st2" d="M1670.8,88.8h-307.6l316.3,1.7L1670.8,88.8z M1363.3,88.8l316.3,1.7h-315.4L1363.3,88.8z"/>
	<path class="st2" d="M1332.1,85.2H1281l54.1,7L1332.1,85.2z M1281,85.2l54.1,7H1283L1281,85.2z"/>
	<path class="st2" d="M1332.1,85.2H1281l54.1,7L1332.1,85.2z M1281,85.2l54.1,7H1283L1281,85.2z"/>
	<path class="st2" d="M1679.6,90.5h-315.4l324,2L1679.6,90.5z M1364.2,90.5l324,2h-322.7L1364.2,90.5z"/>
	<path class="st2" d="M1679.6,90.5h-315.4l324,2L1679.6,90.5z M1364.2,90.5l324,2h-322.7L1364.2,90.5z"/>
	<path class="st2" d="M1335.1,92.2H1283l52.6,1L1335.1,92.2z M1283,92.2l52.6,1h-52.3L1283,92.2z"/>
	<path class="st2" d="M1335.1,92.2H1283l52.6,1L1335.1,92.2z M1283,92.2l52.6,1h-52.3L1283,92.2z"/>
	<path class="st2" d="M1688.2,92.5h-322.7l326.3,1.1L1688.2,92.5z M1365.6,92.5l326.3,1.1h-325.6L1365.6,92.5z"/>
	<path class="st2" d="M1688.2,92.5h-322.7l326.3,1.1L1688.2,92.5z M1365.6,92.5l326.3,1.1h-325.6L1365.6,92.5z"/>
	<path class="st2" d="M1691.8,93.6h-325.6l330.5,1.4L1691.8,93.6z M1366.3,93.6l330.5,1.4h-329.5L1366.3,93.6z"/>
	<path class="st2" d="M1691.8,93.6h-325.6l330.5,1.4L1691.8,93.6z M1366.3,93.6l330.5,1.4h-329.5L1366.3,93.6z"/>
	<path class="st2" d="M1696.8,95.1h-329.5l337.9,3L1696.8,95.1z M1367.2,95.1l337.9,3h-335.8L1367.2,95.1z"/>
	<path class="st2" d="M1696.8,95.1h-329.5l337.9,3L1696.8,95.1z M1367.2,95.1l337.9,3h-335.8L1367.2,95.1z"/>
	<path class="st2" d="M1705.2,98.1h-335.8l338,0.8L1705.2,98.1z M1369.4,98.1l338,0.8h-337.3L1369.4,98.1z"/>
	<path class="st2" d="M1705.2,98.1h-335.8l338,0.8L1705.2,98.1z M1369.4,98.1l338,0.8h-337.3L1369.4,98.1z"/>
	<path class="st2" d="M1335.6,93.1h-52.3l55.3,5.9L1335.6,93.1z M1283.2,93.1l55.3,5.9h-53.3L1283.2,93.1z"/>
	<path class="st2" d="M1335.6,93.1h-52.3l55.3,5.9L1335.6,93.1z M1283.2,93.1l55.3,5.9h-53.3L1283.2,93.1z"/>
	<path class="st2" d="M1707.4,98.9h-337.3l343.3,2.5L1707.4,98.9z M1370.1,98.9l343.3,2.5h-341.3L1370.1,98.9z"/>
	<path class="st2" d="M1707.4,98.9h-337.3l343.3,2.5L1707.4,98.9z M1370.1,98.9l343.3,2.5h-341.3L1370.1,98.9z"/>
	<path class="st2" d="M1338.6,99h-53.3l54.7,2.4L1338.6,99z M1285.3,99l54.7,2.4h-53.8L1285.3,99z"/>
	<path class="st2" d="M1338.6,99h-53.3l54.7,2.4L1338.6,99z M1285.3,99l54.7,2.4h-53.8L1285.3,99z"/>
	<path class="st2" d="M1713.4,101.4h-341.3l346.7,2.6L1713.4,101.4z M1372.2,101.4l346.7,2.6h-344.5L1372.2,101.4z"/>
	<path class="st2" d="M1713.4,101.4h-341.3l346.7,2.6L1713.4,101.4z M1372.2,101.4l346.7,2.6h-344.5L1372.2,101.4z"/>
	<path class="st2" d="M1718.8,104.1h-344.5l347.2,1.2L1718.8,104.1z M1374.3,104.1l347.2,1.2h-346L1374.3,104.1z"/>
	<path class="st2" d="M1718.8,104.1h-344.5l347.2,1.2L1718.8,104.1z M1374.3,104.1l347.2,1.2h-346L1374.3,104.1z"/>
	<path class="st2" d="M1340,101.4h-53.8l56.2,4.1L1340,101.4z M1286.2,101.4l56.2,4.1h-54.5L1286.2,101.4z"/>
	<path class="st2" d="M1340,101.4h-53.8l56.2,4.1L1340,101.4z M1286.2,101.4l56.2,4.1h-54.5L1286.2,101.4z"/>
	<path class="st2" d="M1721.5,105.3h-346l352.4,3.5L1721.5,105.3z M1375.5,105.3l352.4,3.5h-349L1375.5,105.3z"/>
	<path class="st2" d="M1721.5,105.3h-346l352.4,3.5L1721.5,105.3z M1375.5,105.3l352.4,3.5h-349L1375.5,105.3z"/>
	<path class="st2" d="M1728,108.7h-349l350.3,0.7L1728,108.7z M1379,108.7l350.3,0.7h-349.6L1379,108.7z"/>
	<path class="st2" d="M1728,108.7h-349l350.3,0.7L1728,108.7z M1379,108.7l350.3,0.7h-349.6L1379,108.7z"/>
	<path class="st2" d="M1342.4,105.5h-54.5l57.4,4.2L1342.4,105.5z M1287.9,105.5l57.4,4.2h-55.7L1287.9,105.5z"/>
	<path class="st2" d="M1342.4,105.5h-54.5l57.4,4.2L1342.4,105.5z M1287.9,105.5l57.4,4.2h-55.7L1287.9,105.5z"/>
	<path class="st2" d="M1345.3,109.7h-55.7l57.1,2.2L1345.3,109.7z M1289.6,109.7l57.1,2.2h-56L1289.6,109.7z"/>
	<path class="st2" d="M1345.3,109.7h-55.7l57.1,2.2L1345.3,109.7z M1289.6,109.7l57.1,2.2h-56L1289.6,109.7z"/>
	<path class="st2" d="M1729.3,109.5h-349.6l355.6,3.7L1729.3,109.5z M1379.7,109.5l355.6,3.7h-351.4L1379.7,109.5z"/>
	<path class="st2" d="M1729.3,109.5h-349.6l355.6,3.7L1729.3,109.5z M1379.7,109.5l355.6,3.7h-351.4L1379.7,109.5z"/>
	<path class="st2" d="M1735.3,113.2h-351.4l352.9,1L1735.3,113.2z M1383.9,113.2l352.9,1h-351.7L1383.9,113.2z"/>
	<path class="st2" d="M1735.3,113.2h-351.4l352.9,1L1735.3,113.2z M1383.9,113.2l352.9,1h-351.7L1383.9,113.2z"/>
	<path class="st2" d="M1736.8,114.1h-351.7l356.3,3.1L1736.8,114.1z M1385.1,114.1l356.3,3.1h-352.3L1385.1,114.1z"/>
	<path class="st2" d="M1736.8,114.1h-351.7l356.3,3.1L1736.8,114.1z M1385.1,114.1l356.3,3.1h-352.3L1385.1,114.1z"/>
	<path class="st2" d="M1346.7,111.9h-56l60.6,5.9L1346.7,111.9z M1290.7,111.9l60.6,5.9h-57.8L1290.7,111.9z"/>
	<path class="st2" d="M1346.7,111.9h-56l60.6,5.9L1346.7,111.9z M1290.7,111.9l60.6,5.9h-57.8L1290.7,111.9z"/>
	<path class="st2" d="M1351.3,117.7h-57.8l58,0.1L1351.3,117.7z M1293.4,117.7l58,0.1h-57.8L1293.4,117.7z"/>
	<path class="st2" d="M1351.3,117.7h-57.8l58,0.1L1351.3,117.7z M1293.4,117.7l58,0.1h-57.8L1293.4,117.7z"/>
	<path class="st2" d="M1741.4,117.3h-352.3l355.1,1.9L1741.4,117.3z M1389.1,117.3l355.1,1.9H1392L1389.1,117.3z"/>
	<path class="st2" d="M1741.4,117.3h-352.3l355.1,1.9L1741.4,117.3z M1389.1,117.3l355.1,1.9H1392L1389.1,117.3z"/>
	<path class="st2" d="M1744.2,119.2H1392l354.5,1.8L1744.2,119.2z M1392,119.2l354.5,1.8h-351.8L1392,119.2z"/>
	<path class="st2" d="M1744.2,119.2H1392l354.5,1.8L1744.2,119.2z M1392,119.2l354.5,1.8h-351.8L1392,119.2z"/>
	<path class="st2" d="M1351.4,117.9h-57.8l62.9,5.8L1351.4,117.9z M1293.6,117.9l62.9,5.8h-59.8L1293.6,117.9z"/>
	<path class="st2" d="M1351.4,117.9h-57.8l62.9,5.8L1351.4,117.9z M1293.6,117.9l62.9,5.8h-59.8L1293.6,117.9z"/>
	<path class="st2" d="M1746.4,121h-351.8l356.2,3.2L1746.4,121z M1394.6,121l356.2,3.2h-350.4L1394.6,121z"/>
	<path class="st2" d="M1746.4,121h-351.8l356.2,3.2L1746.4,121z M1394.6,121l356.2,3.2h-350.4L1394.6,121z"/>
	<path class="st2" d="M1750.8,124.2h-350.4l350.9,0.4L1750.8,124.2z M1400.4,124.2l350.9,0.4H1401L1400.4,124.2z"/>
	<path class="st2" d="M1750.8,124.2h-350.4l350.9,0.4L1750.8,124.2z M1400.4,124.2l350.9,0.4H1401L1400.4,124.2z"/>
	<path class="st2" d="M1356.4,123.6h-59.8l61.7,1.9L1356.4,123.6z M1296.7,123.6l61.7,1.9h-60.7L1296.7,123.6z"/>
	<path class="st2" d="M1356.4,123.6h-59.8l61.7,1.9L1356.4,123.6z M1296.7,123.6l61.7,1.9h-60.7L1296.7,123.6z"/>
	<path class="st2" d="M1751.2,124.6H1401l353.3,2.6L1751.2,124.6z M1401,124.6l353.3,2.6h-348L1401,124.6z"/>
	<path class="st2" d="M1751.2,124.6H1401l353.3,2.6L1751.2,124.6z M1401,124.6l353.3,2.6h-348L1401,124.6z"/>
	<path class="st2" d="M1358.4,125.5h-60.7l64.2,3.5L1358.4,125.5z M1297.6,125.5l64.2,3.5h-62L1297.6,125.5z"/>
	<path class="st2" d="M1358.4,125.5h-60.7l64.2,3.5L1358.4,125.5z M1297.6,125.5l64.2,3.5h-62L1297.6,125.5z"/>
	<path class="st2" d="M1754.2,127.2h-348l350.9,2.4L1754.2,127.2z M1406.2,127.2l350.9,2.4h-344.8L1406.2,127.2z"/>
	<path class="st2" d="M1754.2,127.2h-348l350.9,2.4L1754.2,127.2z M1406.2,127.2l350.9,2.4h-344.8L1406.2,127.2z"/>
	<path class="st2" d="M1757.1,129.6h-344.8l345.6,0.7L1757.1,129.6z M1412.4,129.6l345.6,0.7h-343.3L1412.4,129.6z"/>
	<path class="st2" d="M1757.1,129.6h-344.8l345.6,0.7L1757.1,129.6z M1412.4,129.6l345.6,0.7h-343.3L1412.4,129.6z"/>
	<path class="st2" d="M1758,130.3h-343.3l344.8,1.3L1758,130.3z M1414.6,130.3l344.8,1.3h-340.7L1414.6,130.3z"/>
	<path class="st2" d="M1758,130.3h-343.3l344.8,1.3L1758,130.3z M1414.6,130.3l344.8,1.3h-340.7L1414.6,130.3z"/>
	<path class="st2" d="M1361.8,129h-62l66.7,4.1L1361.8,129z M1299.8,129l66.7,4.1h-64.2L1299.8,129z"/>
	<path class="st2" d="M1361.8,129h-62l66.7,4.1L1361.8,129z M1299.8,129l66.7,4.1h-64.2L1299.8,129z"/>
	<path class="st2" d="M1759.4,131.7h-340.7l342.4,1.7L1759.4,131.7z M1418.7,131.7l342.4,1.7h-336L1418.7,131.7z"/>
	<path class="st2" d="M1759.4,131.7h-340.7l342.4,1.7L1759.4,131.7z M1418.7,131.7l342.4,1.7h-336L1418.7,131.7z"/>
	<path class="st2" d="M1366.5,133.1h-64.2l65.2,1L1366.5,133.1z M1302.3,133.1l65.2,1h-64.6L1302.3,133.1z"/>
	<path class="st2" d="M1366.5,133.1h-64.2l65.2,1L1366.5,133.1z M1302.3,133.1l65.2,1h-64.6L1302.3,133.1z"/>
	<path class="st2" d="M1761.1,133.3h-336l337.2,1.1L1761.1,133.3z M1425.1,133.3l337.2,1.1h-330.6L1425.1,133.3z"/>
	<path class="st2" d="M1761.1,133.3h-336l337.2,1.1L1761.1,133.3z M1425.1,133.3l337.2,1.1h-330.6L1425.1,133.3z"/>
	<path class="st2" d="M1762.3,134.4h-330.6l331.3,0.7L1762.3,134.4z M1431.7,134.4l331.3,0.7h-324.8L1431.7,134.4z"/>
	<path class="st2" d="M1762.3,134.4h-330.6l331.3,0.7L1762.3,134.4z M1431.7,134.4l331.3,0.7h-324.8L1431.7,134.4z"/>
	<path class="st2" d="M1763,135.1h-324.8l325.1,0.2L1763,135.1z M1438.2,135.1l325.1,0.2h-318.5L1438.2,135.1z"/>
	<path class="st2" d="M1763,135.1h-324.8l325.1,0.2L1763,135.1z M1438.2,135.1l325.1,0.2h-318.5L1438.2,135.1z"/>
	<path class="st2" d="M1222.2,86.8H834.1l388.1,48.6V86.8z M834.1,86.8l388.1,48.6H834.1V86.8z"/>
	<path class="st2" d="M1222.2,86.8H834.1l388.1,48.6V86.8z M834.1,86.8l388.1,48.6H834.1V86.8z"/>
	<path class="st2" d="M1763.2,135.4h-118.9l119.2,0.2L1763.2,135.4z M1644.3,135.4l119.2,0.2h-111.6L1644.3,135.4z"/>
	<path class="st2" d="M1763.2,135.4h-118.9l119.2,0.2L1763.2,135.4z M1644.3,135.4l119.2,0.2h-111.6L1644.3,135.4z"/>
	<path class="st2" d="M1763.5,135.6h-111.6l112.3,0.7L1763.5,135.6z M1651.9,135.6l112.3,0.7h-104.6L1651.9,135.6z"/>
	<path class="st2" d="M1763.5,135.6h-111.6l112.3,0.7L1763.5,135.6z M1651.9,135.6l112.3,0.7h-104.6L1651.9,135.6z"/>
	<path class="st2" d="M1764.2,136.3h-104.6l104.9,0.1L1764.2,136.3z M1659.6,136.3l104.9,0.1h-103.9L1659.6,136.3z"/>
	<path class="st2" d="M1764.2,136.3h-104.6l104.9,0.1L1764.2,136.3z M1659.6,136.3l104.9,0.1h-103.9L1659.6,136.3z"/>
	<path class="st2" d="M1764.4,136.5h-103.9l104.9,1.1L1764.4,136.5z M1660.5,136.5l104.9,1.1H1667L1660.5,136.5z"/>
	<path class="st2" d="M1764.4,136.5h-103.9l104.9,1.1L1764.4,136.5z M1660.5,136.5l104.9,1.1H1667L1660.5,136.5z"/>
	<path class="st2" d="M1367.5,134.1h-64.6l70.7,4.6L1367.5,134.1z M1302.9,134.1l70.7,4.6h-67.4L1302.9,134.1z"/>
	<path class="st2" d="M1367.5,134.1h-64.6l70.7,4.6L1367.5,134.1z M1302.9,134.1l70.7,4.6h-67.4L1302.9,134.1z"/>
	<path class="st2" d="M1765.4,137.5H1667l100,1.7L1765.4,137.5z M1667,137.5l100,1.7h-92.5L1667,137.5z"/>
	<path class="st2" d="M1765.4,137.5H1667l100,1.7L1765.4,137.5z M1667,137.5l100,1.7h-92.5L1667,137.5z"/>
	<path class="st2" d="M1373.6,138.6h-67.4l70,1.8L1373.6,138.6z M1306.2,138.6l70,1.8h-68.8L1306.2,138.6z"/>
	<path class="st2" d="M1373.6,138.6h-67.4l70,1.8L1373.6,138.6z M1306.2,138.6l70,1.8h-68.8L1306.2,138.6z"/>
	<path class="st2" d="M1767,139.2h-92.5l94.6,2L1767,139.2z M1674.4,139.2l94.6,2h-87.2L1674.4,139.2z"/>
	<path class="st2" d="M1767,139.2h-92.5l94.6,2L1767,139.2z M1674.4,139.2l94.6,2h-87.2L1674.4,139.2z"/>
	<path class="st2" d="M1769,141.3h-87.2l88.8,1.7L1769,141.3z M1681.8,141.3l88.8,1.7h-84.2L1681.8,141.3z"/>
	<path class="st2" d="M1769,141.3h-87.2l88.8,1.7L1769,141.3z M1681.8,141.3l88.8,1.7h-84.2L1681.8,141.3z"/>
	<path class="st2" d="M1376.1,140.4h-68.8l72.5,2.5L1376.1,140.4z M1307.4,140.4l72.5,2.5h-70.6L1307.4,140.4z"/>
	<path class="st2" d="M1376.1,140.4h-68.8l72.5,2.5L1376.1,140.4z M1307.4,140.4l72.5,2.5h-70.6L1307.4,140.4z"/>
	<path class="st2" d="M1770.6,142.9h-84.2l85.1,1L1770.6,142.9z M1686.3,142.9l85.1,1H1689L1686.3,142.9z"/>
	<path class="st2" d="M1770.6,142.9h-84.2l85.1,1L1770.6,142.9z M1686.3,142.9l85.1,1H1689L1686.3,142.9z"/>
	<path class="st2" d="M1379.8,142.9h-70.6l77.2,3.8L1379.8,142.9z M1309.3,142.9l77.2,3.8h-74.2L1309.3,142.9z"/>
	<path class="st2" d="M1379.8,142.9h-70.6l77.2,3.8L1379.8,142.9z M1309.3,142.9l77.2,3.8h-74.2L1309.3,142.9z"/>
	<path class="st2" d="M1771.4,143.9H1689l85,3L1771.4,143.9z M1689,143.9l85,3h-78L1689,143.9z"/>
	<path class="st2" d="M1771.4,143.9H1689l85,3L1771.4,143.9z M1689,143.9l85,3h-78L1689,143.9z"/>
	<path class="st2" d="M1386.4,146.8h-74.2l75.4,0.7L1386.4,146.8z M1312.3,146.8l75.4,0.7h-74.9L1312.3,146.8z"/>
	<path class="st2" d="M1386.4,146.8h-74.2l75.4,0.7L1386.4,146.8z M1312.3,146.8l75.4,0.7h-74.9L1312.3,146.8z"/>
	<path class="st2" d="M1773.9,146.9h-78l80.4,2.8L1773.9,146.9z M1695.9,146.9l80.4,2.8h-74.9L1695.9,146.9z"/>
	<path class="st2" d="M1773.9,146.9h-78l80.4,2.8L1773.9,146.9z M1695.9,146.9l80.4,2.8h-74.9L1695.9,146.9z"/>
	<path class="st2" d="M1387.6,147.5h-74.9l80.4,2.8L1387.6,147.5z M1312.8,147.5l80.4,2.8h-78L1312.8,147.5z"/>
	<path class="st2" d="M1387.6,147.5h-74.9l80.4,2.8L1387.6,147.5z M1312.8,147.5l80.4,2.8h-78L1312.8,147.5z"/>
	<path class="st2" d="M1776.3,149.7h-74.9l75.4,0.7L1776.3,149.7z M1701.4,149.7l75.4,0.7h-74L1701.4,149.7z"/>
	<path class="st2" d="M1776.3,149.7h-74.9l75.4,0.7L1776.3,149.7z M1701.4,149.7l75.4,0.7h-74L1701.4,149.7z"/>
	<path class="st2" d="M1393.2,150.3h-78l85,3.1L1393.2,150.3z M1315.2,150.3l85,3.1h-82.3L1315.2,150.3z"/>
	<path class="st2" d="M1393.2,150.3h-78l85,3.1L1393.2,150.3z M1315.2,150.3l85,3.1h-82.3L1315.2,150.3z"/>
	<path class="st2" d="M1776.8,150.4h-74l77,3.8L1776.8,150.4z M1702.8,150.4l77,3.8h-70.6L1702.8,150.4z"/>
	<path class="st2" d="M1776.8,150.4h-74l77,3.8L1776.8,150.4z M1702.8,150.4l77,3.8h-70.6L1702.8,150.4z"/>
	<path class="st2" d="M1400.1,153.4h-82.3l85,0.8L1400.1,153.4z M1317.8,153.4l85,0.8h-84.2L1317.8,153.4z"/>
	<path class="st2" d="M1400.1,153.4h-82.3l85,0.8L1400.1,153.4z M1317.8,153.4l85,0.8h-84.2L1317.8,153.4z"/>
	<path class="st2" d="M1402.8,154.2h-84.2l88.8,1.7L1402.8,154.2z M1318.5,154.2l88.8,1.7h-87.2L1318.5,154.2z"/>
	<path class="st2" d="M1402.8,154.2h-84.2l88.8,1.7L1402.8,154.2z M1318.5,154.2l88.8,1.7h-87.2L1318.5,154.2z"/>
	<path class="st2" d="M1779.8,154.2h-70.6l72.5,2.5L1779.8,154.2z M1709.2,154.2l72.5,2.5H1713L1709.2,154.2z"/>
	<path class="st2" d="M1779.8,154.2h-70.6l72.5,2.5L1779.8,154.2z M1709.2,154.2l72.5,2.5H1713L1709.2,154.2z"/>
	<path class="st2" d="M1407.3,155.9h-87.2l94.6,2.2L1407.3,155.9z M1320.1,155.9l94.6,2.2h-92.5L1320.1,155.9z"/>
	<path class="st2" d="M1407.3,155.9h-87.2l94.6,2.2L1407.3,155.9z M1320.1,155.9l94.6,2.2h-92.5L1320.1,155.9z"/>
	<path class="st2" d="M1781.7,156.7H1713l70,1.8L1781.7,156.7z M1713,156.7l70,1.8h-67.3L1713,156.7z"/>
	<path class="st2" d="M1781.7,156.7H1713l70,1.8L1781.7,156.7z M1713,156.7l70,1.8h-67.3L1713,156.7z"/>
	<path class="st2" d="M1414.6,158.1h-92.5l100,1.7L1414.6,158.1z M1322.1,158.1l100,1.7h-98.4L1322.1,158.1z"/>
	<path class="st2" d="M1414.6,158.1h-92.5l100,1.7L1414.6,158.1z M1322.1,158.1l100,1.7h-98.4L1322.1,158.1z"/>
	<path class="st2" d="M1422.1,159.7h-98.4l104.9,1L1422.1,159.7z M1323.7,159.7l104.9,1h-103.9L1323.7,159.7z"/>
	<path class="st2" d="M1422.1,159.7h-98.4l104.9,1L1422.1,159.7z M1323.7,159.7l104.9,1h-103.9L1323.7,159.7z"/>
	<path class="st2" d="M1428.6,160.7h-103.9l105,0.1L1428.6,160.7z M1324.6,160.7l105,0.1h-104.8L1324.6,160.7z"/>
	<path class="st2" d="M1428.6,160.7h-103.9l105,0.1L1428.6,160.7z M1324.6,160.7l105,0.1h-104.8L1324.6,160.7z"/>
	<path class="st2" d="M1429.6,160.8h-104.8l112.3,0.7L1429.6,160.8z M1324.9,160.8l112.3,0.7h-111.6L1324.9,160.8z"/>
	<path class="st2" d="M1429.6,160.8h-104.8l112.3,0.7L1429.6,160.8z M1324.9,160.8l112.3,0.7h-111.6L1324.9,160.8z"/>
	<path class="st2" d="M1437.2,161.5h-111.6l119.2,0.2L1437.2,161.5z M1325.6,161.5l119.2,0.2h-118.9L1325.6,161.5z"/>
	<path class="st2" d="M1437.2,161.5h-111.6l119.2,0.2L1437.2,161.5z M1325.6,161.5l119.2,0.2h-118.9L1325.6,161.5z"/>
	<path class="st2" d="M1644.3,161.8h-318.5l325.1,0.2L1644.3,161.8z M1325.8,161.8l325.1,0.2h-324.8L1325.8,161.8z"/>
	<path class="st2" d="M1644.3,161.8h-318.5l325.1,0.2L1644.3,161.8z M1325.8,161.8l325.1,0.2h-324.8L1325.8,161.8z"/>
	<path class="st2" d="M1650.9,162h-324.8l331.4,0.7L1650.9,162z M1326.1,162l331.4,0.7h-330.7L1326.1,162z"/>
	<path class="st2" d="M1650.9,162h-324.8l331.4,0.7L1650.9,162z M1326.1,162l331.4,0.7h-330.7L1326.1,162z"/>
	<path class="st2" d="M1782.9,158.5h-67.3l70.6,4.7L1782.9,158.5z M1715.6,158.5l70.6,4.7h-64.6L1715.6,158.5z"/>
	<path class="st2" d="M1782.9,158.5h-67.3l70.6,4.7L1782.9,158.5z M1715.6,158.5l70.6,4.7h-64.6L1715.6,158.5z"/>
	<path class="st2" d="M1657.5,162.7h-330.7l337.2,1.2L1657.5,162.7z M1326.8,162.7l337.2,1.2h-336L1326.8,162.7z"/>
	<path class="st2" d="M1657.5,162.7h-330.7l337.2,1.2L1657.5,162.7z M1326.8,162.7l337.2,1.2h-336L1326.8,162.7z"/>
	<path class="st2" d="M1786.2,163.2h-64.6l65.2,0.8L1786.2,163.2z M1721.6,163.2l65.2,0.8h-64.2L1721.6,163.2z"/>
	<path class="st2" d="M1786.2,163.2h-64.6l65.2,0.8L1786.2,163.2z M1721.6,163.2l65.2,0.8h-64.2L1721.6,163.2z"/>
	<path class="st2" d="M1664,163.9h-336l342.5,1.6L1664,163.9z M1328,163.9l342.5,1.6h-340.7L1328,163.9z"/>
	<path class="st2" d="M1664,163.9h-336l342.5,1.6L1664,163.9z M1328,163.9l342.5,1.6h-340.7L1328,163.9z"/>
	<path class="st2" d="M1670.5,165.5h-340.7l344.8,1.3L1670.5,165.5z M1329.8,165.5l344.8,1.3h-343.4L1329.8,165.5z"/>
	<path class="st2" d="M1670.5,165.5h-340.7l344.8,1.3L1670.5,165.5z M1329.8,165.5l344.8,1.3h-343.4L1329.8,165.5z"/>
	<path class="st2" d="M1674.6,166.8h-343.4l345.6,0.7L1674.6,166.8z M1331.1,166.8l345.6,0.7H1332L1331.1,166.8z"/>
	<path class="st2" d="M1674.6,166.8h-343.4l345.6,0.7L1674.6,166.8z M1331.1,166.8l345.6,0.7H1332L1331.1,166.8z"/>
	<path class="st2" d="M1786.8,164.1h-64.2l66.7,4.2L1786.8,164.1z M1722.6,164.1l66.7,4.2h-61.9L1722.6,164.1z"/>
	<path class="st2" d="M1786.8,164.1h-64.2l66.7,4.2L1786.8,164.1z M1722.6,164.1l66.7,4.2h-61.9L1722.6,164.1z"/>
	<path class="st2" d="M1676.7,167.5H1332l350.9,2.5L1676.7,167.5z M1332,167.5l350.9,2.5h-348L1332,167.5z"/>
	<path class="st2" d="M1676.7,167.5H1332l350.9,2.5L1676.7,167.5z M1332,167.5l350.9,2.5h-348L1332,167.5z"/>
	<path class="st2" d="M1789.3,168.3h-61.9l64.1,3.4L1789.3,168.3z M1727.4,168.3l64.1,3.4h-60.7L1727.4,168.3z"/>
	<path class="st2" d="M1789.3,168.3h-61.9l64.1,3.4L1789.3,168.3z M1727.4,168.3l64.1,3.4h-60.7L1727.4,168.3z"/>
	<path class="st2" d="M1682.8,170.1h-348l353.3,2.5L1682.8,170.1z M1334.8,170.1l353.3,2.5H1338L1334.8,170.1z"/>
	<path class="st2" d="M1682.8,170.1h-348l353.3,2.5L1682.8,170.1z M1334.8,170.1l353.3,2.5H1338L1334.8,170.1z"/>
	<path class="st2" d="M1688.1,172.6H1338l350.9,0.4L1688.1,172.6z M1338,172.6l350.9,0.4h-350.5L1338,172.6z"/>
	<path class="st2" d="M1688.1,172.6H1338l350.9,0.4L1688.1,172.6z M1338,172.6l350.9,0.4h-350.5L1338,172.6z"/>
	<path class="st2" d="M1791.4,171.6h-60.7l61.8,2L1791.4,171.6z M1730.7,171.6l61.8,2h-59.9L1730.7,171.6z"/>
	<path class="st2" d="M1791.4,171.6h-60.7l61.8,2L1791.4,171.6z M1730.7,171.6l61.8,2h-59.9L1730.7,171.6z"/>
	<path class="st2" d="M1688.8,172.9h-350.5l356.2,3.2L1688.8,172.9z M1338.3,172.9l356.2,3.2h-351.8L1338.3,172.9z"/>
	<path class="st2" d="M1688.8,172.9h-350.5l356.2,3.2L1688.8,172.9z M1338.3,172.9l356.2,3.2h-351.8L1338.3,172.9z"/>
	<path class="st2" d="M1694.5,176.2h-351.8l354.6,1.8L1694.5,176.2z M1342.6,176.2l354.6,1.8h-352.3L1342.6,176.2z"/>
	<path class="st2" d="M1694.5,176.2h-351.8l354.6,1.8L1694.5,176.2z M1342.6,176.2l354.6,1.8h-352.3L1342.6,176.2z"/>
	<path class="st2" d="M1792.5,173.7h-59.9l63,5.6L1792.5,173.7z M1732.6,173.7l63,5.6h-58L1732.6,173.7z"/>
	<path class="st2" d="M1792.5,173.7h-59.9l63,5.6L1792.5,173.7z M1732.6,173.7l63,5.6h-58L1732.6,173.7z"/>
	<path class="st2" d="M1795.6,179.3h-58l58,0.2V179.3z M1737.7,179.3l58,0.2h-57.8L1737.7,179.3z"/>
	<path class="st2" d="M1795.6,179.3h-58l58,0.2V179.3z M1737.7,179.3l58,0.2h-57.8L1737.7,179.3z"/>
	<path class="st2" d="M1697.2,178h-352.3l355.1,1.9L1697.2,178z M1344.9,178l355.1,1.9h-352.2L1344.9,178z"/>
	<path class="st2" d="M1697.2,178h-352.3l355.1,1.9L1697.2,178z M1344.9,178l355.1,1.9h-352.2L1344.9,178z"/>
	<path class="st2" d="M1700,179.9h-352.2L1704,183L1700,179.9z M1347.8,179.9L1704,183h-351.7L1347.8,179.9z"/>
	<path class="st2" d="M1700,179.9h-352.2L1704,183L1700,179.9z M1347.8,179.9L1704,183h-351.7L1347.8,179.9z"/>
	<path class="st2" d="M1704,183h-351.7l353,1L1704,183z M1352.2,183l353,1h-351.5L1352.2,183z"/>
	<path class="st2" d="M1704,183h-351.7l353,1L1704,183z M1352.2,183l353,1h-351.5L1352.2,183z"/>
	<path class="st2" d="M1795.6,179.5h-57.8l60.7,5.8L1795.6,179.5z M1737.8,179.5l60.7,5.8h-56.2L1737.8,179.5z"/>
	<path class="st2" d="M1795.6,179.5h-57.8l60.7,5.8L1795.6,179.5z M1737.8,179.5l60.7,5.8h-56.2L1737.8,179.5z"/>
	<path class="st2" d="M1798.5,185.3h-56.2l57.1,2.2L1798.5,185.3z M1742.4,185.3l57.1,2.2h-55.6L1742.4,185.3z"/>
	<path class="st2" d="M1798.5,185.3h-56.2l57.1,2.2L1798.5,185.3z M1742.4,185.3l57.1,2.2h-55.6L1742.4,185.3z"/>
	<path class="st2" d="M1705.3,184h-351.5l355.6,3.7L1705.3,184z M1353.8,184l355.6,3.7h-349.4L1353.8,184z"/>
	<path class="st2" d="M1705.3,184h-351.5l355.6,3.7L1705.3,184z M1353.8,184l355.6,3.7h-349.4L1353.8,184z"/>
	<path class="st2" d="M1709.4,187.7h-349.4l350.3,0.7L1709.4,187.7z M1359.9,187.7l350.3,0.7h-349L1359.9,187.7z"/>
	<path class="st2" d="M1709.4,187.7h-349.4l350.3,0.7L1709.4,187.7z M1359.9,187.7l350.3,0.7h-349L1359.9,187.7z"/>
	<path class="st2" d="M1799.5,187.5h-55.6l57.2,4.2L1799.5,187.5z M1743.9,187.5l57.2,4.2h-54.5L1743.9,187.5z"/>
	<path class="st2" d="M1799.5,187.5h-55.6l57.2,4.2L1799.5,187.5z M1743.9,187.5l57.2,4.2h-54.5L1743.9,187.5z"/>
	<path class="st2" d="M1710.2,188.4h-349l352.3,3.5L1710.2,188.4z M1361.2,188.4l352.3,3.5h-345.8L1361.2,188.4z"/>
	<path class="st2" d="M1710.2,188.4h-349l352.3,3.5L1710.2,188.4z M1361.2,188.4l352.3,3.5h-345.8L1361.2,188.4z"/>
	<path class="st2" d="M1713.6,191.9h-345.8l347,1.3L1713.6,191.9z M1367.7,191.9l347,1.3h-344.5L1367.7,191.9z"/>
	<path class="st2" d="M1713.6,191.9h-345.8l347,1.3L1713.6,191.9z M1367.7,191.9l347,1.3h-344.5L1367.7,191.9z"/>
	<path class="st2" d="M1801.2,191.7h-54.5l56.3,4.1L1801.2,191.7z M1746.7,191.7l56.3,4.1h-53.9L1746.7,191.7z"/>
	<path class="st2" d="M1801.2,191.7h-54.5l56.3,4.1L1801.2,191.7z M1746.7,191.7l56.3,4.1h-53.9L1746.7,191.7z"/>
	<path class="st2" d="M1714.8,193.2h-344.5l346.7,2.5L1714.8,193.2z M1370.2,193.2l346.7,2.5h-341.2L1370.2,193.2z"/>
	<path class="st2" d="M1714.8,193.2h-344.5l346.7,2.5L1714.8,193.2z M1370.2,193.2l346.7,2.5h-341.2L1370.2,193.2z"/>
	<path class="st2" d="M1803,195.7h-53.9l54.7,2.5L1803,195.7z M1749.1,195.7l54.7,2.5h-53.3L1749.1,195.7z"/>
	<path class="st2" d="M1803,195.7h-53.9l54.7,2.5L1803,195.7z M1749.1,195.7l54.7,2.5h-53.3L1749.1,195.7z"/>
	<path class="st2" d="M1716.9,195.7h-341.2l343.2,2.5L1716.9,195.7z M1375.8,195.7l343.2,2.5h-337.2L1375.8,195.7z"/>
	<path class="st2" d="M1716.9,195.7h-341.2l343.2,2.5L1716.9,195.7z M1375.8,195.7l343.2,2.5h-337.2L1375.8,195.7z"/>
	<path class="st2" d="M1719,198.3h-337.2l337.9,1L1719,198.3z M1381.8,198.3l337.9,1h-335.8L1381.8,198.3z"/>
	<path class="st2" d="M1719,198.3h-337.2l337.9,1L1719,198.3z M1381.8,198.3l337.9,1h-335.8L1381.8,198.3z"/>
	<path class="st2" d="M1719.7,199.2h-335.8l337.9,2.9L1719.7,199.2z M1383.9,199.2l337.9,2.9h-329.5L1383.9,199.2z"/>
	<path class="st2" d="M1719.7,199.2h-335.8l337.9,2.9L1719.7,199.2z M1383.9,199.2l337.9,2.9h-329.5L1383.9,199.2z"/>
	<path class="st2" d="M1721.8,202.1h-329.5l330.6,1.6L1721.8,202.1z M1392.3,202.1l330.6,1.6h-325.7L1392.3,202.1z"/>
	<path class="st2" d="M1721.8,202.1h-329.5l330.6,1.6L1721.8,202.1z M1392.3,202.1l330.6,1.6h-325.7L1392.3,202.1z"/>
	<path class="st2" d="M1803.8,198.3h-53.3l55.3,5.9L1803.8,198.3z M1750.5,198.3l55.3,5.9h-52.3L1750.5,198.3z"/>
	<path class="st2" d="M1803.8,198.3h-53.3l55.3,5.9L1803.8,198.3z M1750.5,198.3l55.3,5.9h-52.3L1750.5,198.3z"/>
	<path class="st2" d="M1722.9,203.7h-325.7l326.3,1L1722.9,203.7z M1397.2,203.7l326.3,1h-322.7L1397.2,203.7z"/>
	<path class="st2" d="M1722.9,203.7h-325.7l326.3,1L1722.9,203.7z M1397.2,203.7l326.3,1h-322.7L1397.2,203.7z"/>
	<path class="st2" d="M1805.8,204.1h-52.3l52.6,0.8L1805.8,204.1z M1753.5,204.1l52.6,0.8H1754L1753.5,204.1z"/>
	<path class="st2" d="M1805.8,204.1h-52.3l52.6,0.8L1805.8,204.1z M1753.5,204.1l52.6,0.8H1754L1753.5,204.1z"/>
	<path class="st2" d="M1723.5,204.6h-322.7l324,2.2L1723.5,204.6z M1400.8,204.6l324,2.2h-315.4L1400.8,204.6z"/>
	<path class="st2" d="M1723.5,204.6h-322.7l324,2.2L1723.5,204.6z M1400.8,204.6l324,2.2h-315.4L1400.8,204.6z"/>
	<path class="st2" d="M1724.8,206.8h-315.4l316.4,1.6L1724.8,206.8z M1409.5,206.8l316.4,1.6h-307.7L1409.5,206.8z"/>
	<path class="st2" d="M1724.8,206.8h-315.4l316.4,1.6L1724.8,206.8z M1409.5,206.8l316.4,1.6h-307.7L1409.5,206.8z"/>
	<path class="st2" d="M1725.9,208.3h-307.7l308.2,0.8L1725.9,208.3z M1418.2,208.3l308.2,0.8h-301.7L1418.2,208.3z"/>
	<path class="st2" d="M1725.9,208.3h-307.7l308.2,0.8L1725.9,208.3z M1418.2,208.3l308.2,0.8h-301.7L1418.2,208.3z"/>
	<path class="st2" d="M1726.4,209.2h-301.7l301.8,0.4L1726.4,209.2z M1424.7,209.2l301.8,0.4H1427L1424.7,209.2z"/>
	<path class="st2" d="M1726.4,209.2h-301.7l301.8,0.4L1726.4,209.2z M1424.7,209.2l301.8,0.4H1427L1424.7,209.2z"/>
	<path class="st2" d="M1726.5,209.5H1427l299.9,0.7L1726.5,209.5z M1427,209.5l299.9,0.7h-291L1427,209.5z"/>
	<path class="st2" d="M1726.5,209.5H1427l299.9,0.7L1726.5,209.5z M1427,209.5l299.9,0.7h-291L1427,209.5z"/>
	<path class="st2" d="M1726.9,210.3h-291l291.1,0.2L1726.9,210.3z M1435.9,210.3l291.1,0.2h-282.2L1435.9,210.3z"/>
	<path class="st2" d="M1726.9,210.3h-291l291.1,0.2L1726.9,210.3z M1435.9,210.3l291.1,0.2h-282.2L1435.9,210.3z"/>
	<path class="st2" d="M1222.2,161.8H834.1l388.1,48.7V161.8z M834.1,161.8l388.1,48.7H834.1V161.8z"/>
	<path class="st2" d="M1222.2,161.8H834.1l388.1,48.7V161.8z M834.1,161.8l388.1,48.7H834.1V161.8z"/>
	<path class="st2" d="M1727,210.5h-82.7l82.8,0.2L1727,210.5z M1644.3,210.5l82.8,0.2H1649L1644.3,210.5z"/>
	<path class="st2" d="M1727,210.5h-82.7l82.8,0.2L1727,210.5z M1644.3,210.5l82.8,0.2H1649L1644.3,210.5z"/>
	<path class="st2" d="M1727.1,210.7H1649l78.6,0.7L1727.1,210.7z M1649,210.7l78.6,0.7h-74L1649,210.7z"/>
	<path class="st2" d="M1727.1,210.7H1649l78.6,0.7L1727.1,210.7z M1649,210.7l78.6,0.7h-74L1649,210.7z"/>
	<path class="st2" d="M1806.1,205H1754l54.2,7L1806.1,205z M1754,205l54.2,7H1757L1754,205z"/>
	<path class="st2" d="M1806.1,205H1754l54.2,7L1806.1,205z M1754,205l54.2,7H1757L1754,205z"/>
	<path class="st2" d="M1727.6,211.5h-74l74.6,1.1L1727.6,211.5z M1653.6,211.5l74.6,1.1h-70.1L1653.6,211.5z"/>
	<path class="st2" d="M1727.6,211.5h-74l74.6,1.1L1727.6,211.5z M1653.6,211.5l74.6,1.1h-70.1L1653.6,211.5z"/>
	<path class="st2" d="M1808.2,211.9H1757l51.4,0.7L1808.2,211.9z M1757,211.9l51.4,0.7h-51.1L1757,211.9z"/>
	<path class="st2" d="M1808.2,211.9H1757l51.4,0.7L1808.2,211.9z M1757,211.9l51.4,0.7h-51.1L1757,211.9z"/>
	<path class="st2" d="M1728.2,212.5h-70.1l70.9,1.7L1728.2,212.5z M1658.1,212.5l70.9,1.7h-66.5L1658.1,212.5z"/>
	<path class="st2" d="M1728.2,212.5h-70.1l70.9,1.7L1728.2,212.5z M1658.1,212.5l70.9,1.7h-66.5L1658.1,212.5z"/>
	<path class="st2" d="M1729,214.2h-66.5l67,0.8L1729,214.2z M1662.6,214.2l67,0.8h-65.3L1662.6,214.2z"/>
	<path class="st2" d="M1729,214.2h-66.5l67,0.8L1729,214.2z M1662.6,214.2l67,0.8h-65.3L1662.6,214.2z"/>
	<path class="st2" d="M1729.5,215.1h-65.3l65.8,1.2L1729.5,215.1z M1664.2,215.1l65.8,1.2h-63.2L1664.2,215.1z"/>
	<path class="st2" d="M1729.5,215.1h-65.3l65.8,1.2L1729.5,215.1z M1664.2,215.1l65.8,1.2h-63.2L1664.2,215.1z"/>
	<path class="st2" d="M1730,216.3h-63.2l64.3,2.5L1730,216.3z M1666.8,216.3l64.3,2.5h-60.4L1666.8,216.3z"/>
	<path class="st2" d="M1730,216.3h-63.2l64.3,2.5L1730,216.3z M1666.8,216.3l64.3,2.5h-60.4L1666.8,216.3z"/>
	<path class="st2" d="M1808.4,212.7h-51.1l52.7,6.5L1808.4,212.7z M1757.2,212.7l52.7,6.5h-50.3L1757.2,212.7z"/>
	<path class="st2" d="M1808.4,212.7h-51.1l52.7,6.5L1808.4,212.7z M1757.2,212.7l52.7,6.5h-50.3L1757.2,212.7z"/>
	<path class="st2" d="M1731.1,218.8h-60.4l61.4,2.3L1731.1,218.8z M1670.7,218.8l61.4,2.3h-58.4L1670.7,218.8z"/>
	<path class="st2" d="M1731.1,218.8h-60.4l61.4,2.3L1731.1,218.8z M1670.7,218.8l61.4,2.3h-58.4L1670.7,218.8z"/>
	<path class="st2" d="M1809.9,219.1h-50.3l50.9,2.2L1809.9,219.1z M1759.6,219.1l50.9,2.2h-50.3L1759.6,219.1z"/>
	<path class="st2" d="M1809.9,219.1h-50.3l50.9,2.2L1809.9,219.1z M1759.6,219.1l50.9,2.2h-50.3L1759.6,219.1z"/>
	<path class="st2" d="M1732.2,221.1h-58.4l58.7,0.5L1732.2,221.1z M1673.7,221.1l58.7,0.5h-58.1L1673.7,221.1z"/>
	<path class="st2" d="M1732.2,221.1h-58.4l58.7,0.5L1732.2,221.1z M1673.7,221.1l58.7,0.5h-58.1L1673.7,221.1z"/>
	<path class="st2" d="M1732.4,221.5h-58.1l59.3,3.2L1732.4,221.5z M1674.3,221.5l59.3,3.2h-55.8L1674.3,221.5z"/>
	<path class="st2" d="M1732.4,221.5h-58.1l59.3,3.2L1732.4,221.5z M1674.3,221.5l59.3,3.2h-55.8L1674.3,221.5z"/>
	<path class="st2" d="M1810.5,221.3h-50.3l51.2,5.2L1810.5,221.3z M1760.2,221.3l51.2,5.2h-49.7L1760.2,221.3z"/>
	<path class="st2" d="M1810.5,221.3h-50.3l51.2,5.2L1810.5,221.3z M1760.2,221.3l51.2,5.2h-49.7L1760.2,221.3z"/>
	<path class="st2" d="M1733.6,224.8h-55.8l56.6,2.5L1733.6,224.8z M1677.8,224.8l56.6,2.5H1680L1677.8,224.8z"/>
	<path class="st2" d="M1733.6,224.8h-55.8l56.6,2.5L1733.6,224.8z M1677.8,224.8l56.6,2.5H1680L1677.8,224.8z"/>
	<path class="st2" d="M1734.4,227.3H1680l54.8,1.1L1734.4,227.3z M1680,227.3l54.8,1.1h-54L1680,227.3z"/>
	<path class="st2" d="M1734.4,227.3H1680l54.8,1.1L1734.4,227.3z M1680,227.3l54.8,1.1h-54L1680,227.3z"/>
	<path class="st2" d="M1811.5,226.5h-49.7l50.3,3.6L1811.5,226.5z M1761.8,226.5l50.3,3.6h-49.6L1761.8,226.5z"/>
	<path class="st2" d="M1811.5,226.5h-49.7l50.3,3.6L1811.5,226.5z M1761.8,226.5l50.3,3.6h-49.6L1761.8,226.5z"/>
	<path class="st2" d="M1734.8,228.4h-54l55.1,3.8L1734.8,228.4z M1680.8,228.4l55.1,3.8h-52.4L1680.8,228.4z"/>
	<path class="st2" d="M1734.8,228.4h-54l55.1,3.8L1734.8,228.4z M1680.8,228.4l55.1,3.8h-52.4L1680.8,228.4z"/>
	<path class="st2" d="M1735.9,232.2h-52.4l52.8,1.4L1735.9,232.2z M1683.4,232.2l52.8,1.4h-52L1683.4,232.2z"/>
	<path class="st2" d="M1735.9,232.2h-52.4l52.8,1.4L1735.9,232.2z M1683.4,232.2l52.8,1.4h-52L1683.4,232.2z"/>
	<path class="st2" d="M1812.1,230.1h-49.6l50,3.8L1812.1,230.1z M1762.5,230.1l50,3.8h-49.2L1762.5,230.1z"/>
	<path class="st2" d="M1812.1,230.1h-49.6l50,3.8L1812.1,230.1z M1762.5,230.1l50,3.8h-49.2L1762.5,230.1z"/>
	<path class="st2" d="M1736.2,233.7h-52l52.6,2.6L1736.2,233.7z M1684.3,233.7l52.6,2.6h-51.1L1684.3,233.7z"/>
	<path class="st2" d="M1736.2,233.7h-52l52.6,2.6L1736.2,233.7z M1684.3,233.7l52.6,2.6h-51.1L1684.3,233.7z"/>
	<path class="st2" d="M1812.6,233.9h-49.2l49.9,4.9L1812.6,233.9z M1763.4,233.9l49.9,4.9h-49.1L1763.4,233.9z"/>
	<path class="st2" d="M1812.6,233.9h-49.2l49.9,4.9L1812.6,233.9z M1763.4,233.9l49.9,4.9h-49.1L1763.4,233.9z"/>
	<path class="st2" d="M1736.8,236.3h-51.1l52,3.8L1736.8,236.3z M1685.7,236.3l52,3.8h-50.3L1685.7,236.3z"/>
	<path class="st2" d="M1736.8,236.3h-51.1l52,3.8L1736.8,236.3z M1685.7,236.3l52,3.8h-50.3L1685.7,236.3z"/>
	<path class="st2" d="M1737.7,240.1h-50.3l50.3,0.5V240.1z M1687.4,240.1l50.3,0.5h-50L1687.4,240.1z"/>
	<path class="st2" d="M1737.7,240.1h-50.3l50.3,0.5V240.1z M1687.4,240.1l50.3,0.5h-50L1687.4,240.1z"/>
	<path class="st2" d="M1813.3,238.8h-49.1l49.3,2.6L1813.3,238.8z M1764.2,238.8l49.3,2.6h-49L1764.2,238.8z"/>
	<path class="st2" d="M1813.3,238.8h-49.1l49.3,2.6L1813.3,238.8z M1764.2,238.8l49.3,2.6h-49L1764.2,238.8z"/>
	<path class="st2" d="M1737.7,240.6h-50l50.6,4.4L1737.7,240.6z M1687.6,240.6l50.6,4.4H1689L1687.6,240.6z"/>
	<path class="st2" d="M1737.7,240.6h-50l50.6,4.4L1737.7,240.6z M1687.6,240.6l50.6,4.4H1689L1687.6,240.6z"/>
	<path class="st2" d="M1738.3,245.1H1689l49.6,1.7L1738.3,245.1z M1689,245.1l49.6,1.7h-49.2L1689,245.1z"/>
	<path class="st2" d="M1738.3,245.1H1689l49.6,1.7L1738.3,245.1z M1689,245.1l49.6,1.7h-49.2L1689,245.1z"/>
	<path class="st2" d="M1813.5,241.5h-49l49.4,6.2L1813.5,241.5z M1764.6,241.5l49.4,6.2h-48.8L1764.6,241.5z"/>
	<path class="st2" d="M1813.5,241.5h-49l49.4,6.2L1813.5,241.5z M1764.6,241.5l49.4,6.2h-48.8L1764.6,241.5z"/>
	<path class="st2" d="M1814,247.7h-48.8l48.8,1.3V247.7z M1765.2,247.7l48.8,1.3h-48.7L1765.2,247.7z"/>
	<path class="st2" d="M1814,247.7h-48.8l48.8,1.3V247.7z M1765.2,247.7l48.8,1.3h-48.7L1765.2,247.7z"/>
	<path class="st2" d="M1738.5,246.7h-49.2l49.4,2.9L1738.5,246.7z M1689.3,246.7l49.4,2.9h-48.8L1689.3,246.7z"/>
	<path class="st2" d="M1738.5,246.7h-49.2l49.4,2.9L1738.5,246.7z M1689.3,246.7l49.4,2.9h-48.8L1689.3,246.7z"/>
	<path class="st2" d="M1738.8,249.6h-48.8l49.1,3.7L1738.8,249.6z M1689.9,249.6l49.1,3.7h-48.7L1689.9,249.6z"/>
	<path class="st2" d="M1738.8,249.6h-48.8l49.1,3.7L1738.8,249.6z M1689.9,249.6l49.1,3.7h-48.7L1689.9,249.6z"/>
	<path class="st2" d="M1739,253.3h-48.7l48.7,1V253.3z M1690.3,253.3l48.7,1h-48.6L1690.3,253.3z"/>
	<path class="st2" d="M1739,253.3h-48.7l48.7,1V253.3z M1690.3,253.3l48.7,1h-48.6L1690.3,253.3z"/>
	<path class="st2" d="M1814,249h-48.7l49,7.6L1814,249z M1765.3,249l49,7.6h-48.7L1765.3,249z"/>
	<path class="st2" d="M1814,249h-48.7l49,7.6L1814,249z M1765.3,249l49,7.6h-48.7L1765.3,249z"/>
	<path class="st2" d="M1739,254.3h-48.6l48.6,4.7V254.3z M1690.4,254.3l48.6,4.7h-48.6V254.3z"/>
	<path class="st2" d="M1739,254.3h-48.6l48.6,4.7V254.3z M1690.4,254.3l48.6,4.7h-48.6V254.3z"/>
	<path class="st2" d="M1739,259h-48.6l48.6,1V259z M1690.4,259l48.6,1h-48.7L1690.4,259z"/>
	<path class="st2" d="M1739,259h-48.6l48.6,1V259z M1690.4,259l48.6,1h-48.7L1690.4,259z"/>
	<path class="st2" d="M1739,259.9h-48.7l48.5,3.6L1739,259.9z M1690.3,259.9l48.5,3.6h-48.8L1690.3,259.9z"/>
	<path class="st2" d="M1739,259.9h-48.7l48.5,3.6L1739,259.9z M1690.3,259.9l48.5,3.6h-48.8L1690.3,259.9z"/>
	<path class="st2" d="M1814.2,256.6h-48.7l48.5,7.7L1814.2,256.6z M1765.5,256.6l48.5,7.7h-48.7L1765.5,256.6z"/>
	<path class="st2" d="M1814.2,256.6h-48.7l48.5,7.7L1814.2,256.6z M1765.5,256.6l48.5,7.7h-48.7L1765.5,256.6z"/>
	<path class="st2" d="M1814,264.3h-48.7l48.7,1.2V264.3z M1765.3,264.3l48.7,1.2h-48.8L1765.3,264.3z"/>
	<path class="st2" d="M1814,264.3h-48.7l48.7,1.2V264.3z M1765.3,264.3l48.7,1.2h-48.8L1765.3,264.3z"/>
	<path class="st2" d="M1738.8,263.5h-48.8l48.6,3L1738.8,263.5z M1689.9,263.5l48.6,3h-49.2L1689.9,263.5z"/>
	<path class="st2" d="M1738.8,263.5h-48.8l48.6,3L1738.8,263.5z M1689.9,263.5l48.6,3h-49.2L1689.9,263.5z"/>
	<path class="st2" d="M1738.5,266.5h-49.2l49,1.7L1738.5,266.5z M1689.3,266.5l49,1.7H1689L1689.3,266.5z"/>
	<path class="st2" d="M1738.5,266.5h-49.2l49,1.7L1738.5,266.5z M1689.3,266.5l49,1.7H1689L1689.3,266.5z"/>
	<path class="st2" d="M1814,265.5h-48.8l48.4,6.4L1814,265.5z M1765.2,265.5l48.4,6.4h-49L1765.2,265.5z"/>
	<path class="st2" d="M1814,265.5h-48.8l48.4,6.4L1814,265.5z M1765.2,265.5l48.4,6.4h-49L1765.2,265.5z"/>
	<path class="st2" d="M1738.3,268.2H1689l48.7,4.4L1738.3,268.2z M1689,268.2l48.7,4.4h-50L1689,268.2z"/>
	<path class="st2" d="M1738.3,268.2H1689l48.7,4.4L1738.3,268.2z M1689,268.2l48.7,4.4h-50L1689,268.2z"/>
	<path class="st2" d="M1737.7,272.7h-50l50,0.4V272.7z M1687.6,272.7l50,0.4h-50.3L1687.6,272.7z"/>
	<path class="st2" d="M1737.7,272.7h-50l50,0.4V272.7z M1687.6,272.7l50,0.4h-50.3L1687.6,272.7z"/>
	<path class="st2" d="M1813.5,271.8h-49l48.7,2.5L1813.5,271.8z M1764.6,271.8l48.7,2.5h-49.1L1764.6,271.8z"/>
	<path class="st2" d="M1813.5,271.8h-49l48.7,2.5L1813.5,271.8z M1764.6,271.8l48.7,2.5h-49.1L1764.6,271.8z"/>
	<path class="st2" d="M1737.7,273h-50.3l49.4,4L1737.7,273z M1687.4,273l49.4,4h-51.1L1687.4,273z"/>
	<path class="st2" d="M1737.7,273h-50.3l49.4,4L1737.7,273z M1687.4,273l49.4,4h-51.1L1687.4,273z"/>
	<path class="st2" d="M1813.3,274.3h-49.1l48.4,5L1813.3,274.3z M1764.2,274.3l48.4,5h-49.2L1764.2,274.3z"/>
	<path class="st2" d="M1813.3,274.3h-49.1l48.4,5L1813.3,274.3z M1764.2,274.3l48.4,5h-49.2L1764.2,274.3z"/>
	<path class="st2" d="M1736.8,277h-51.1l50.5,2.5L1736.8,277z M1685.7,277l50.5,2.5h-52L1685.7,277z"/>
	<path class="st2" d="M1736.8,277h-51.1l50.5,2.5L1736.8,277z M1685.7,277l50.5,2.5h-52L1685.7,277z"/>
	<path class="st2" d="M1736.2,279.5h-52l51.6,1.6L1736.2,279.5z M1684.3,279.5l51.6,1.6h-52.4L1684.3,279.5z"/>
	<path class="st2" d="M1736.2,279.5h-52l51.6,1.6L1736.2,279.5z M1684.3,279.5l51.6,1.6h-52.4L1684.3,279.5z"/>
	<path class="st2" d="M1812.6,279.4h-49.2l48.7,3.8L1812.6,279.4z M1763.4,279.4l48.7,3.8h-49.6L1763.4,279.4z"/>
	<path class="st2" d="M1812.6,279.4h-49.2l48.7,3.8L1812.6,279.4z M1763.4,279.4l48.7,3.8h-49.6L1763.4,279.4z"/>
	<path class="st2" d="M1735.9,281.1h-52.4l51.4,3.8L1735.9,281.1z M1683.4,281.1l51.4,3.8h-54L1683.4,281.1z"/>
	<path class="st2" d="M1735.9,281.1h-52.4l51.4,3.8L1735.9,281.1z M1683.4,281.1l51.4,3.8h-54L1683.4,281.1z"/>
	<path class="st2" d="M1734.8,284.9h-54l53.6,1L1734.8,284.9z M1680.8,284.9l53.6,1H1680L1680.8,284.9z"/>
	<path class="st2" d="M1734.8,284.9h-54l53.6,1L1734.8,284.9z M1680.8,284.9l53.6,1H1680L1680.8,284.9z"/>
	<path class="st2" d="M1812.1,283.2h-49.6l49,3.6L1812.1,283.2z M1762.5,283.2l49,3.6h-49.7L1762.5,283.2z"/>
	<path class="st2" d="M1812.1,283.2h-49.6l49,3.6L1812.1,283.2z M1762.5,283.2l49,3.6h-49.7L1762.5,283.2z"/>
	<path class="st2" d="M1734.4,285.9H1680l53.6,2.5L1734.4,285.9z M1680,285.9l53.6,2.5h-55.8L1680,285.9z"/>
	<path class="st2" d="M1734.4,285.9H1680l53.6,2.5L1734.4,285.9z M1680,285.9l53.6,2.5h-55.8L1680,285.9z"/>
	<path class="st2" d="M1733.6,288.4h-55.8l54.6,3.2L1733.6,288.4z M1677.8,288.4l54.6,3.2h-58.1L1677.8,288.4z"/>
	<path class="st2" d="M1733.6,288.4h-55.8l54.6,3.2L1733.6,288.4z M1677.8,288.4l54.6,3.2h-58.1L1677.8,288.4z"/>
	<path class="st2" d="M1811.5,286.8h-49.7l48.7,5.2L1811.5,286.8z M1761.8,286.8l48.7,5.2h-50.3L1761.8,286.8z"/>
	<path class="st2" d="M1811.5,286.8h-49.7l48.7,5.2L1811.5,286.8z M1761.8,286.8l48.7,5.2h-50.3L1761.8,286.8z"/>
	<path class="st2" d="M1732.4,291.6h-58.1l57.8,0.5L1732.4,291.6z M1674.3,291.6l57.8,0.5h-58.4L1674.3,291.6z"/>
	<path class="st2" d="M1732.4,291.6h-58.1l57.8,0.5L1732.4,291.6z M1674.3,291.6l57.8,0.5h-58.4L1674.3,291.6z"/>
	<path class="st2" d="M1810.5,292h-50.3l49.7,2L1810.5,292z M1760.2,292l49.7,2h-50.3L1760.2,292z"/>
	<path class="st2" d="M1810.5,292h-50.3l49.7,2L1810.5,292z M1760.2,292l49.7,2h-50.3L1760.2,292z"/>
	<path class="st2" d="M1732.2,292.1h-58.4l57.4,2.4L1732.2,292.1z M1673.7,292.1l57.4,2.4h-60.4L1673.7,292.1z"/>
	<path class="st2" d="M1732.2,292.1h-58.4l57.4,2.4L1732.2,292.1z M1673.7,292.1l57.4,2.4h-60.4L1673.7,292.1z"/>
	<path class="st2" d="M1731.1,294.5h-60.4l59.3,2.4L1731.1,294.5z M1670.7,294.5l59.3,2.4h-63.2L1670.7,294.5z"/>
	<path class="st2" d="M1731.1,294.5h-60.4l59.3,2.4L1731.1,294.5z M1670.7,294.5l59.3,2.4h-63.2L1670.7,294.5z"/>
	<path class="st2" d="M1730,296.9h-63.2l62.8,1.2L1730,296.9z M1666.8,296.9l62.8,1.2h-65.3L1666.8,296.9z"/>
	<path class="st2" d="M1730,296.9h-63.2l62.8,1.2L1730,296.9z M1666.8,296.9l62.8,1.2h-65.3L1666.8,296.9z"/>
	<path class="st2" d="M1729.5,298.1h-65.3l64.8,1L1729.5,298.1z M1664.2,298.1l64.8,1h-66.5L1664.2,298.1z"/>
	<path class="st2" d="M1729.5,298.1h-65.3l64.8,1L1729.5,298.1z M1664.2,298.1l64.8,1h-66.5L1664.2,298.1z"/>
	<path class="st2" d="M1809.9,294h-50.3l48.7,6.6L1809.9,294z M1759.6,294l48.7,6.6h-51.1L1759.6,294z"/>
	<path class="st2" d="M1809.9,294h-50.3l48.7,6.6L1809.9,294z M1759.6,294l48.7,6.6h-51.1L1759.6,294z"/>
	<path class="st2" d="M1729,299.1h-66.5l65.6,1.6L1729,299.1z M1662.6,299.1l65.6,1.6h-70.1L1662.6,299.1z"/>
	<path class="st2" d="M1729,299.1h-66.5l65.6,1.6L1729,299.1z M1662.6,299.1l65.6,1.6h-70.1L1662.6,299.1z"/>
	<path class="st2" d="M1808.4,300.6h-51.1l51,0.6L1808.4,300.6z M1757.2,300.6l51,0.6H1757L1757.2,300.6z"/>
	<path class="st2" d="M1808.4,300.6h-51.1l51,0.6L1808.4,300.6z M1757.2,300.6l51,0.6H1757L1757.2,300.6z"/>
	<path class="st2" d="M1728.2,300.6h-70.1l69.5,1.2L1728.2,300.6z M1658.1,300.6l69.5,1.2h-74L1658.1,300.6z"/>
	<path class="st2" d="M1728.2,300.6h-70.1l69.5,1.2L1728.2,300.6z M1658.1,300.6l69.5,1.2h-74L1658.1,300.6z"/>
	<path class="st2" d="M1727.6,301.8h-74l73.6,0.7L1727.6,301.8z M1653.6,301.8l73.6,0.7H1649L1653.6,301.8z"/>
	<path class="st2" d="M1727.6,301.8h-74l73.6,0.7L1727.6,301.8z M1653.6,301.8l73.6,0.7H1649L1653.6,301.8z"/>
	<path class="st2" d="M2646.8,37.5H2594l165.4,265.3L2646.8,37.5z M2594,37.5l165.4,265.3h-52.8L2594,37.5z"/>
	<path class="st2" d="M2646.8,37.5H2594l165.4,265.3L2646.8,37.5z M2594,37.5l165.4,265.3h-52.8L2594,37.5z"/>
	<path class="st2" d="M2580.7,37.5h-52.8l-59.8,265.3L2580.7,37.5z M2527.9,37.5l-59.8,265.3h-52.8L2527.9,37.5z"/>
	<path class="st2" d="M2580.7,37.5h-52.8l-59.8,265.3L2580.7,37.5z M2527.9,37.5l-59.8,265.3h-52.8L2527.9,37.5z"/>
	<path class="st2" d="M1991-129.2h-48.6l48.6,432V-129.2z M1942.4-129.2l48.6,432h-48.6V-129.2z"/>
	<path class="st2" d="M1991-129.2h-48.6l48.6,432V-129.2z M1942.4-129.2l48.6,432h-48.6V-129.2z"/>
	<path class="st2" d="M1727.1,302.5H1649l78,0.2L1727.1,302.5z M1649,302.5l78,0.2h-82.7L1649,302.5z"/>
	<path class="st2" d="M1727.1,302.5H1649l78,0.2L1727.1,302.5z M1649,302.5l78,0.2h-82.7L1649,302.5z"/>
	<path class="st2" d="M882.7,210.5h-48.6l48.6,92.3V210.5z M834.1,210.5l48.6,92.3h-48.6V210.5z"/>
	<path class="st2" d="M882.7,210.5h-48.6l48.6,92.3V210.5z M834.1,210.5l48.6,92.3h-48.6V210.5z"/>
	<path class="st2" d="M2759.4,302.8h-291.2L2760,304L2759.4,302.8z M2468.1,302.8L2760,304h-291.2L2468.1,302.8z"/>
	<path class="st2" d="M2759.4,302.8h-291.2L2760,304L2759.4,302.8z M2468.1,302.8L2760,304h-291.2L2468.1,302.8z"/>
	<path class="st2" d="M2468.1,302.8h-52.8l52.3,1.2L2468.1,302.8z M2415.3,302.8l52.3,1.2h-52.8L2415.3,302.8z"/>
	<path class="st2" d="M2468.1,302.8h-52.8l52.3,1.2L2468.1,302.8z M2415.3,302.8l52.3,1.2h-52.8L2415.3,302.8z"/>
	<path class="st2" d="M1727,302.8h-451.9l451.3,1.2L1727,302.8z M1275.1,302.8l451.3,1.2h-451.3V302.8z"/>
	<path class="st2" d="M1727,302.8h-451.9l451.3,1.2L1727,302.8z M1275.1,302.8l451.3,1.2h-451.3V302.8z"/>
	<path class="st2" d="M1808.2,301.2H1757l49.1,7L1808.2,301.2z M1757,301.2l49.1,7H1754L1757,301.2z"/>
	<path class="st2" d="M1808.2,301.2H1757l49.1,7L1808.2,301.2z M1757,301.2l49.1,7H1754L1757,301.2z"/>
	<path class="st2" d="M1806.1,308.2H1754l51.8,1L1806.1,308.2z M1754,308.2l51.8,1h-52.3L1754,308.2z"/>
	<path class="st2" d="M1806.1,308.2H1754l51.8,1L1806.1,308.2z M1754,308.2l51.8,1h-52.3L1754,308.2z"/>
	<path class="st2" d="M1726.4,304h-451.3l447.8,5.6L1726.4,304z M1275.1,304l447.8,5.6h-447.8V304z"/>
	<path class="st2" d="M1726.4,304h-451.3l447.8,5.6L1726.4,304z M1275.1,304l447.8,5.6h-447.8V304z"/>
	<path class="st2" d="M1722.9,309.6h-447.8L1719,315L1722.9,309.6z M1275.1,309.6L1719,315h-443.9V309.6z"/>
	<path class="st2" d="M1722.9,309.6h-447.8L1719,315L1722.9,309.6z M1275.1,309.6L1719,315h-443.9V309.6z"/>
	<path class="st2" d="M1805.8,309.1h-52.3l50.3,5.9L1805.8,309.1z M1753.5,309.1l50.3,5.9h-53.3L1753.5,309.1z"/>
	<path class="st2" d="M1805.8,309.1h-52.3l50.3,5.9L1805.8,309.1z M1753.5,309.1l50.3,5.9h-53.3L1753.5,309.1z"/>
	<path class="st2" d="M1803.8,315h-53.3l52.4,2.5L1803.8,315z M1750.5,315l52.4,2.5h-53.9L1750.5,315z"/>
	<path class="st2" d="M1803.8,315h-53.3l52.4,2.5L1803.8,315z M1750.5,315l52.4,2.5h-53.9L1750.5,315z"/>
	<path class="st2" d="M1719,315h-443.9l439.7,5L1719,315z M1275.1,315l439.7,5h-439.7V315z"/>
	<path class="st2" d="M1719,315h-443.9l439.7,5L1719,315z M1275.1,315l439.7,5h-439.7V315z"/>
	<path class="st2" d="M1803,317.5h-53.9l52.1,4.1L1803,317.5z M1749.1,317.5l52.1,4.1h-54.5L1749.1,317.5z"/>
	<path class="st2" d="M1803,317.5h-53.9l52.1,4.1L1803,317.5z M1749.1,317.5l52.1,4.1h-54.5L1749.1,317.5z"/>
	<path class="st2" d="M1714.8,320.1h-439.7l435.1,4.7L1714.8,320.1z M1275.1,320.1l435.1,4.7h-435.1V320.1z"/>
	<path class="st2" d="M1714.8,320.1h-439.7l435.1,4.7L1714.8,320.1z M1275.1,320.1l435.1,4.7h-435.1V320.1z"/>
	<path class="st2" d="M1801.2,321.6h-54.5l52.8,4.1L1801.2,321.6z M1746.7,321.6l52.8,4.1h-55.6L1746.7,321.6z"/>
	<path class="st2" d="M1801.2,321.6h-54.5l52.8,4.1L1801.2,321.6z M1746.7,321.6l52.8,4.1h-55.6L1746.7,321.6z"/>
	<path class="st2" d="M1799.5,325.7h-55.6l54.6,2.2L1799.5,325.7z M1743.9,325.7l54.6,2.2h-56.2L1743.9,325.7z"/>
	<path class="st2" d="M1799.5,325.7h-55.6l54.6,2.2L1799.5,325.7z M1743.9,325.7l54.6,2.2h-56.2L1743.9,325.7z"/>
	<path class="st2" d="M1710.2,324.7h-435.1l430.2,4.4L1710.2,324.7z M1275.1,324.7l430.2,4.4h-430.2V324.7z"/>
	<path class="st2" d="M1710.2,324.7h-435.1l430.2,4.4L1710.2,324.7z M1275.1,324.7l430.2,4.4h-430.2V324.7z"/>
	<path class="st2" d="M1705.3,329.2h-430.2l424.9,4.1L1705.3,329.2z M1275.1,329.2l424.9,4.1h-424.9V329.2z"/>
	<path class="st2" d="M1705.3,329.2h-430.2l424.9,4.1L1705.3,329.2z M1275.1,329.2l424.9,4.1h-424.9V329.2z"/>
	<path class="st2" d="M1798.5,327.9h-56.2l53.3,5.9L1798.5,327.9z M1742.4,327.9l53.3,5.9h-57.8L1742.4,327.9z"/>
	<path class="st2" d="M1798.5,327.9h-56.2l53.3,5.9L1798.5,327.9z M1742.4,327.9l53.3,5.9h-57.8L1742.4,327.9z"/>
	<path class="st2" d="M1795.6,333.7h-57.8l57.8,0.1V333.7z M1737.8,333.7l57.8,0.1h-58L1737.8,333.7z"/>
	<path class="st2" d="M1795.6,333.7h-57.8l57.8,0.1V333.7z M1737.8,333.7l57.8,0.1h-58L1737.8,333.7z"/>
	<path class="st2" d="M1700,333.3h-424.9l419.4,3.7L1700,333.3z M1275.1,333.3l419.4,3.7h-419.4V333.3z"/>
	<path class="st2" d="M1700,333.3h-424.9l419.4,3.7L1700,333.3z M1275.1,333.3l419.4,3.7h-419.4V333.3z"/>
	<path class="st2" d="M1795.6,333.9h-58l54.8,5.8L1795.6,333.9z M1737.7,333.9l54.8,5.8h-59.9L1737.7,333.9z"/>
	<path class="st2" d="M1795.6,333.9h-58l54.8,5.8L1795.6,333.9z M1737.7,333.9l54.8,5.8h-59.9L1737.7,333.9z"/>
	<path class="st2" d="M1694.5,337h-419.4l413.8,3.4L1694.5,337z M1275.1,337l413.8,3.4h-413.8V337z"/>
	<path class="st2" d="M1694.5,337h-419.4l413.8,3.4L1694.5,337z M1275.1,337l413.8,3.4h-413.8V337z"/>
	<path class="st2" d="M1792.5,339.6h-59.9l58.8,1.9L1792.5,339.6z M1732.6,339.6l58.8,1.9h-60.7L1732.6,339.6z"/>
	<path class="st2" d="M1792.5,339.6h-59.9l58.8,1.9L1792.5,339.6z M1732.6,339.6l58.8,1.9h-60.7L1732.6,339.6z"/>
	<path class="st2" d="M1688.8,340.3h-413.8l407.8,2.9L1688.8,340.3z M1275.1,340.3l407.8,2.9h-407.8V340.3z"/>
	<path class="st2" d="M1688.8,340.3h-413.8l407.8,2.9L1688.8,340.3z M1275.1,340.3l407.8,2.9h-407.8V340.3z"/>
	<path class="st2" d="M1791.4,341.5h-60.7l58.6,3.5L1791.4,341.5z M1730.7,341.5l58.6,3.5h-61.9L1730.7,341.5z"/>
	<path class="st2" d="M1791.4,341.5h-60.7l58.6,3.5L1791.4,341.5z M1730.7,341.5l58.6,3.5h-61.9L1730.7,341.5z"/>
	<path class="st2" d="M1682.8,343.2h-407.8l401.6,2.4L1682.8,343.2z M1275.1,343.2l401.6,2.4h-401.6V343.2z"/>
	<path class="st2" d="M1682.8,343.2h-407.8l401.6,2.4L1682.8,343.2z M1275.1,343.2l401.6,2.4h-401.6V343.2z"/>
	<path class="st2" d="M1676.7,345.6h-401.6l395.4,2L1676.7,345.6z M1275.1,345.6l395.4,2h-395.4V345.6z"/>
	<path class="st2" d="M1676.7,345.6h-401.6l395.4,2L1676.7,345.6z M1275.1,345.6l395.4,2h-395.4V345.6z"/>
	<path class="st2" d="M1789.3,345h-61.9l59.4,4.1L1789.3,345z M1727.4,345l59.4,4.1h-64.2L1727.4,345z"/>
	<path class="st2" d="M1789.3,345h-61.9l59.4,4.1L1789.3,345z M1727.4,345l59.4,4.1h-64.2L1727.4,345z"/>
	<path class="st2" d="M1670.5,347.7h-395.4l388.9,1.7L1670.5,347.7z M1275.1,347.7l388.9,1.7h-388.9V347.7z"/>
	<path class="st2" d="M1670.5,347.7h-395.4l388.9,1.7L1670.5,347.7z M1275.1,347.7l388.9,1.7h-388.9V347.7z"/>
	<path class="st2" d="M1786.8,349.1h-64.2l63.6,1L1786.8,349.1z M1722.6,349.1l63.6,1h-64.6L1722.6,349.1z"/>
	<path class="st2" d="M1786.8,349.1h-64.2l63.6,1L1786.8,349.1z M1722.6,349.1l63.6,1h-64.6L1722.6,349.1z"/>
	<path class="st2" d="M1664,349.3h-388.9l382.4,1.1L1664,349.3z M1275.1,349.3l382.4,1.1h-382.4V349.3z"/>
	<path class="st2" d="M1664,349.3h-388.9l382.4,1.1L1664,349.3z M1275.1,349.3l382.4,1.1h-382.4V349.3z"/>
	<path class="st2" d="M1657.5,350.4h-382.4l375.8,0.7L1657.5,350.4z M1275.1,350.4l375.8,0.7h-375.8V350.4z"/>
	<path class="st2" d="M1657.5,350.4h-382.4l375.8,0.7L1657.5,350.4z M1275.1,350.4l375.8,0.7h-375.8V350.4z"/>
	<path class="st2" d="M2760,304h-291.2l311.3,47.4L2760,304z M2468.7,304l311.3,47.4h-291.2L2468.7,304z"/>
	<path class="st2" d="M2760,304h-291.2l311.3,47.4L2760,304z M2468.7,304l311.3,47.4h-291.2L2468.7,304z"/>
	<path class="st2" d="M2280.8,302.8h-338.4l317.8,48.6L2280.8,302.8z M1942.4,302.8l317.8,48.6h-317.8V302.8z"/>
	<path class="st2" d="M2280.8,302.8h-338.4l317.8,48.6L2280.8,302.8z M1942.4,302.8l317.8,48.6h-317.8V302.8z"/>
	<path class="st2" d="M1650.9,351.1h-375.8l369.2,0.2L1650.9,351.1z M1275.1,351.1l369.2,0.2h-369.2V351.1z"/>
	<path class="st2" d="M1650.9,351.1h-375.8l369.2,0.2L1650.9,351.1z M1275.1,351.1l369.2,0.2h-369.2V351.1z"/>
	<path class="st2" d="M1222.2,302.8H834.1l388.1,48.6V302.8z M834.1,302.8l388.1,48.6H834.1V302.8z"/>
	<path class="st2" d="M1222.2,302.8H834.1l388.1,48.6V302.8z M834.1,302.8l388.1,48.6H834.1V302.8z"/>
	<path class="st2" d="M1786.2,350.1h-64.6l61.3,4.7L1786.2,350.1z M1721.6,350.1l61.3,4.7h-67.3L1721.6,350.1z"/>
	<path class="st2" d="M1786.2,350.1h-64.6l61.3,4.7L1786.2,350.1z M1721.6,350.1l61.3,4.7h-67.3L1721.6,350.1z"/>
	<path class="st2" d="M1782.9,354.7h-67.3l66.1,1.7L1782.9,354.7z M1715.6,354.7l66.1,1.7H1713L1715.6,354.7z"/>
	<path class="st2" d="M1782.9,354.7h-67.3l66.1,1.7L1782.9,354.7z M1715.6,354.7l66.1,1.7H1713L1715.6,354.7z"/>
	<path class="st2" d="M1781.7,356.4H1713l66.8,2.5L1781.7,356.4z M1713,356.4l66.8,2.5h-70.6L1713,356.4z"/>
	<path class="st2" d="M1781.7,356.4H1713l66.8,2.5L1781.7,356.4z M1713,356.4l66.8,2.5h-70.6L1713,356.4z"/>
	<path class="st2" d="M1779.8,358.9h-70.6l67.6,4L1779.8,358.9z M1709.2,358.9l67.6,4h-74L1709.2,358.9z"/>
	<path class="st2" d="M1779.8,358.9h-70.6l67.6,4L1779.8,358.9z M1709.2,358.9l67.6,4h-74L1709.2,358.9z"/>
	<path class="st2" d="M1776.8,362.9h-74l73.6,0.6L1776.8,362.9z M1702.8,362.9l73.6,0.6h-74.9L1702.8,362.9z"/>
	<path class="st2" d="M1776.8,362.9h-74l73.6,0.6L1776.8,362.9z M1702.8,362.9l73.6,0.6h-74.9L1702.8,362.9z"/>
	<path class="st2" d="M1776.3,363.5h-74.9l72.5,2.8L1776.3,363.5z M1701.4,363.5l72.5,2.8h-78L1701.4,363.5z"/>
	<path class="st2" d="M1776.3,363.5h-74.9l72.5,2.8L1776.3,363.5z M1701.4,363.5l72.5,2.8h-78L1701.4,363.5z"/>
	<path class="st2" d="M1773.9,366.3h-78l75.5,3.1L1773.9,366.3z M1695.9,366.3l75.5,3.1H1689L1695.9,366.3z"/>
	<path class="st2" d="M1773.9,366.3h-78l75.5,3.1L1773.9,366.3z M1695.9,366.3l75.5,3.1H1689L1695.9,366.3z"/>
	<path class="st2" d="M1771.4,369.4H1689l81.6,0.8L1771.4,369.4z M1689,369.4l81.6,0.8h-84.2L1689,369.4z"/>
	<path class="st2" d="M1771.4,369.4H1689l81.6,0.8L1771.4,369.4z M1689,369.4l81.6,0.8h-84.2L1689,369.4z"/>
	<path class="st2" d="M1770.6,370.2h-84.2l82.7,1.7L1770.6,370.2z M1686.3,370.2l82.7,1.7h-87.2L1686.3,370.2z"/>
	<path class="st2" d="M1770.6,370.2h-84.2l82.7,1.7L1770.6,370.2z M1686.3,370.2l82.7,1.7h-87.2L1686.3,370.2z"/>
	<path class="st2" d="M1769,371.9h-87.2l85.2,2.2L1769,371.9z M1681.8,371.9l85.2,2.2h-92.5L1681.8,371.9z"/>
	<path class="st2" d="M1769,371.9h-87.2l85.2,2.2L1769,371.9z M1681.8,371.9l85.2,2.2h-92.5L1681.8,371.9z"/>
	<path class="st2" d="M1767,374.1h-92.5l91,1.7L1767,374.1z M1674.4,374.1l91,1.7H1667L1674.4,374.1z"/>
	<path class="st2" d="M1767,374.1h-92.5l91,1.7L1767,374.1z M1674.4,374.1l91,1.7H1667L1674.4,374.1z"/>
	<path class="st2" d="M1765.4,375.7H1667l97.4,1L1765.4,375.7z M1667,375.7l97.4,1h-103.9L1667,375.7z"/>
	<path class="st2" d="M1765.4,375.7H1667l97.4,1L1765.4,375.7z M1667,375.7l97.4,1h-103.9L1667,375.7z"/>
	<path class="st2" d="M1764.4,376.7h-103.9l103.7,0.2L1764.4,376.7z M1660.5,376.7l103.7,0.2h-104.6L1660.5,376.7z"/>
	<path class="st2" d="M1764.4,376.7h-103.9l103.7,0.2L1764.4,376.7z M1660.5,376.7l103.7,0.2h-104.6L1660.5,376.7z"/>
	<path class="st2" d="M1764.2,376.9h-104.6l103.9,0.7L1764.2,376.9z M1659.6,376.9l103.9,0.7h-111.6L1659.6,376.9z"/>
	<path class="st2" d="M1764.2,376.9h-104.6l103.9,0.7L1764.2,376.9z M1659.6,376.9l103.9,0.7h-111.6L1659.6,376.9z"/>
	<path class="st2" d="M2678.2-80.6h-52.8l247.4,458.5L2678.2-80.6z M2625.4-80.6l247.4,458.5h-52.8L2625.4-80.6z"/>
	<path class="st2" d="M2678.2-80.6h-52.8l247.4,458.5L2678.2-80.6z M2625.4-80.6l247.4,458.5h-52.8L2625.4-80.6z"/>
	<path class="st2" d="M1915.9-129.2h-48.6l48.6,507.1V-129.2z M1867.3-129.2l48.6,507.1h-48.6V-129.2z"/>
	<path class="st2" d="M1915.9-129.2h-48.6l48.6,507.1V-129.2z M1867.3-129.2l48.6,507.1h-48.6V-129.2z"/>
	<path class="st2" d="M1763.5,377.7h-111.6l111.4,0.2L1763.5,377.7z M1651.9,377.7l111.4,0.2h-118.9L1651.9,377.7z"/>
	<path class="st2" d="M1763.5,377.7h-111.6l111.4,0.2L1763.5,377.7z M1651.9,377.7l111.4,0.2h-118.9L1651.9,377.7z"/>
	<path class="st2" d="M807.6-80.6H759l48.6,458.5V-80.6z M759-80.6l48.6,458.5H759V-80.6z"/>
	<path class="st2" d="M807.6-80.6H759l48.6,458.5V-80.6z M759-80.6l48.6,458.5H759V-80.6z"/>
	<path class="st2" d="M1763.2,377.9h-488.2l482.9,4.9L1763.2,377.9z M1275.1,377.9l482.9,4.9h-482.9V377.9z"/>
	<path class="st2" d="M1763.2,377.9h-488.2l482.9,4.9L1763.2,377.9z M1275.1,377.9l482.9,4.9h-482.9V377.9z"/>
	<path class="st2" d="M1758,382.8h-482.9l476.2,5.8L1758,382.8z M1275.1,382.8l476.2,5.8h-476.2V382.8z"/>
	<path class="st2" d="M1758,382.8h-482.9l476.2,5.8L1758,382.8z M1275.1,382.8l476.2,5.8h-476.2V382.8z"/>
	<path class="st2" d="M1751.2,388.6h-476.2l469.1,5.4L1751.2,388.6z M1275.1,388.6l469.1,5.4h-469.1V388.6z"/>
	<path class="st2" d="M1751.2,388.6h-476.2l469.1,5.4L1751.2,388.6z M1275.1,388.6l469.1,5.4h-469.1V388.6z"/>
	<path class="st2" d="M1744.2,394h-469.1l461.8,5L1744.2,394z M1275.1,394l461.8,5h-461.8V394z"/>
	<path class="st2" d="M1744.2,394h-469.1l461.8,5L1744.2,394z M1275.1,394l461.8,5h-461.8V394z"/>
	<path class="st2" d="M1736.8,399h-461.8l454.2,4.7L1736.8,399z M1275.1,399l454.2,4.7h-454.2V399z"/>
	<path class="st2" d="M1736.8,399h-461.8l454.2,4.7L1736.8,399z M1275.1,399l454.2,4.7h-454.2V399z"/>
	<path class="st2" d="M1729.3,403.7h-454.2l446.4,4.3L1729.3,403.7z M1275.1,403.7l446.4,4.3h-446.4V403.7z"/>
	<path class="st2" d="M1729.3,403.7h-454.2l446.4,4.3L1729.3,403.7z M1275.1,403.7l446.4,4.3h-446.4V403.7z"/>
	<path class="st2" d="M1721.5,408h-446.4l438.4,3.7L1721.5,408z M1275.1,408l438.4,3.7h-438.4V408z"/>
	<path class="st2" d="M1721.5,408h-446.4l438.4,3.7L1721.5,408z M1275.1,408l438.4,3.7h-438.4V408z"/>
	<path class="st2" d="M1713.4,411.7h-438.4l430.1,3.5L1713.4,411.7z M1275.1,411.7l430.1,3.5h-430.1V411.7z"/>
	<path class="st2" d="M1713.4,411.7h-438.4l430.1,3.5L1713.4,411.7z M1275.1,411.7l430.1,3.5h-430.1V411.7z"/>
	<path class="st2" d="M1705.2,415.2h-430.1l421.7,3L1705.2,415.2z M1275.1,415.2l421.7,3h-421.7V415.2z"/>
	<path class="st2" d="M1705.2,415.2h-430.1l421.7,3L1705.2,415.2z M1275.1,415.2l421.7,3h-421.7V415.2z"/>
	<path class="st2" d="M1696.8,418.2h-421.7l413.2,2.5L1696.8,418.2z M1275.1,418.2l413.2,2.5h-413.2V418.2z"/>
	<path class="st2" d="M1696.8,418.2h-421.7l413.2,2.5L1696.8,418.2z M1275.1,418.2l413.2,2.5h-413.2V418.2z"/>
	<path class="st2" d="M1688.2,420.7h-413.2l404.5,2L1688.2,420.7z M1275.1,420.7l404.5,2h-404.5V420.7z"/>
	<path class="st2" d="M1688.2,420.7h-413.2l404.5,2L1688.2,420.7z M1275.1,420.7l404.5,2h-404.5V420.7z"/>
	<path class="st2" d="M1679.6,422.8h-404.5l395.8,1.6L1679.6,422.8z M1275.1,422.8l395.8,1.6h-395.8V422.8z"/>
	<path class="st2" d="M1679.6,422.8h-404.5l395.8,1.6L1679.6,422.8z M1275.1,422.8l395.8,1.6h-395.8V422.8z"/>
	<path class="st2" d="M1670.8,424.3h-395.8l387,1.2L1670.8,424.3z M1275.1,424.3l387,1.2h-387V424.3z"/>
	<path class="st2" d="M1670.8,424.3h-395.8l387,1.2L1670.8,424.3z M1275.1,424.3l387,1.2h-387V424.3z"/>
	<path class="st2" d="M1662.1,425.5h-387l378.1,0.7L1662.1,425.5z M1275.1,425.5l378.1,0.7h-378.1V425.5z"/>
	<path class="st2" d="M1662.1,425.5h-387l378.1,0.7L1662.1,425.5z M1275.1,425.5l378.1,0.7h-378.1V425.5z"/>
	<path class="st2" d="M2872.9,377.9H2500l393.5,48.6L2872.9,377.9z M2500,377.9l393.5,48.6h-372.8L2500,377.9z"/>
	<path class="st2" d="M2872.9,377.9H2500l393.5,48.6L2872.9,377.9z M2500,377.9l393.5,48.6h-372.8L2500,377.9z"/>
	<path class="st2" d="M2467.6,304h-52.8l0.7,122.5L2467.6,304z M2414.8,304l0.7,122.5h-52.8L2414.8,304z"/>
	<path class="st2" d="M2467.6,304h-52.8l0.7,122.5L2467.6,304z M2414.8,304l0.7,122.5h-52.8L2414.8,304z"/>
	<path class="st2" d="M2549.4-80.6h-52.9l-162.4,507.1L2549.4-80.6z M2496.4-80.6l-162.4,507.1h-52.9L2496.4-80.6z"/>
	<path class="st2" d="M2549.4-80.6h-52.9l-162.4,507.1L2549.4-80.6z M2496.4-80.6l-162.4,507.1h-52.9L2496.4-80.6z"/>
	<path class="st2" d="M2248.9,377.9h-381.6l361,48.6L2248.9,377.9z M1867.3,377.9l361,48.6h-361V377.9z"/>
	<path class="st2" d="M2248.9,377.9h-381.6l361,48.6L2248.9,377.9z M1867.3,377.9l361,48.6h-361V377.9z"/>
	<path class="st2" d="M1653.2,426.3h-378.1l369.2,0.2L1653.2,426.3z M1275.1,426.3l369.2,0.2h-369.2V426.3z"/>
	<path class="st2" d="M1653.2,426.3h-378.1l369.2,0.2L1653.2,426.3z M1275.1,426.3l369.2,0.2h-369.2V426.3z"/>
	<path class="st2" d="M1222.2,377.9H759l463.2,48.6V377.9z M759,377.9l463.2,48.6H759V377.9z"/>
	<path class="st2" d="M1222.2,377.9H759l463.2,48.6V377.9z M759,377.9l463.2,48.6H759V377.9z"/>
	<path class="st2" d="M1222.2,302.8v48.6H834.1V161.8h388.1v48.7H882.7v92.3H1222.2"/>
	<path class="st2" d="M882.7,86.8h339.5v48.6H834.1V-54.2h356.2l-20.6,48.7H882.7V86.8"/>
	<path class="st2" d="M1222.2,426.5v-48.6H807.6V-80.6h394l20.6-48.6H759v555.7H1222.2"/>
	<path class="st2" d="M1867.3-129.2v555.7h361l20.6-48.6h-333v-507.1H1867.3"/>
	<path class="st2" d="M1991-129.2v432h289.8l-20.6,48.6h-317.8v-480.6H1991"/>
	<path class="st2" d="M2500,377.9h320L2625.4-80.6h-76.1l-215.3,507.1h-52.9l235.9-555.7h140.5l235.9,555.7h-372.8L2500,377.9"/>
	<path class="st2" d="M2362.8,426.5h52.8l165.1-389h13.3l112.6,265.3h-238.4l20.6,48.6H2780L2607.9-54.2h-41L2362.8,426.5"/>
	<path class="st2" d="M1807.8,210.5h0.2"/>
	<path class="st2" d="M1644.6,86.8h-199.8"/>
	<path class="st2" d="M1444.8-5.5h316.9l20.6-48.7h-337.6"/>
	<path class="st2" d="M1444.8,135.4h199.6"/>
	<path class="st2" d="M1644.3,377.9h-369.2v48.6h369.2"/>
	<path class="st2" d="M1644.3,210.5h-199.6"/>
	<path class="st2" d="M1444.8-129.2h369.5l-20.6,48.6h-348.8"/>
	<path class="st2" d="M1444.8,161.8h199.6"/>
	<path class="st2" d="M1644.3,351.4h-369.2v-48.6h369.2"/>
</g>
<g>
	<polygon class="st4" points="778,-353.3 951.6,-173.1 805.7,-377.2 1085.1,-385.8 811.4,-405.8 1025,-613.7 791.4,-429.6 
		814.3,-690 758,-426.8 593,-608 727.5,-418.2 494.7,-397.2 734.1,-381 587.3,-248.4 750.4,-356.2 727.5,-89.1 	"/>
	<path class="st3" d="M112.3,602.8h279.5c0,0,39.1-5.5,39.1-39.8c0-34.3,0-461.4,0-461.4S433,65.8,468,65.8s178.1,0,178.1,0
		s52.2,2.1,52.2-39.3s0-310.4,0-310.4s2.1-45.1-55.1-45.1c-57.2,0-308.3,0-308.3,0s-49.4,1.4-49.4,40.8s0,311.2,0,311.2
		s6.4,43.6-42.2,43.6s-116.6,0-116.6,0s-52.2-2.1-52.2,50.1s0,434.2,0,434.2S66.3,595.4,112.3,602.8z"/>
	<path class="st4" d="M231.3,44.4h-383.5c-19.3,0-35-15.7-35-35V-294c0-19.3,15.8-35,35-35h383.5c19.3,0,35,15.8,35,35V9.4
		C266.3,28.6,250.6,44.4,231.3,44.4z"/>
	<path class="st3" d="M92.9,450.4c0,0-228.6,67.6-333-31.1s-4.3-267.5,7.2-287.6c11.4-20,114.5-234.6,505-456.4
		c228.9-118.7,386.3-94.4,452.1-81.5c0,0,51.5-21.5-25.8-42.9c-77.3-21.5-254.7-35.8-585.1,171.7s-409.2,509.3-413.5,525
		c-4.3,15.7-36.7,197.9,158.8,230.3C21.7,498.9,92.9,450.4,92.9,450.4z"/>
</g>
<g>
	<g>
		<path class="st3" d="M873.8,537.2c0,43.5-26.5,66.8-58.9,66.8c-33.7,0-57-26.2-57-64.5c0-40.3,24.8-66.6,58.7-66.6
			C851.5,472.8,873.8,499.4,873.8,537.2z M775.3,539.1c0,27.3,14.7,51.6,40.6,51.6c26,0,40.6-23.9,40.6-52.7
			c0-25.4-13.2-51.7-40.5-51.7S775.3,511.4,775.3,539.1z"/>
		<path class="st3" d="M920.9,475.1v75.3c0,28.2,12.6,40.3,29.5,40.3c18.6,0,30.9-12.4,30.9-40.3v-75.3h16.6v74.1
			c0,38.9-20.5,54.7-48,54.7c-26,0-45.5-14.7-45.5-54.2v-74.7H920.9z"/>
		<path class="st3" d="M1059.7,489h-38.6v-13.9h93.9V489h-38.8v112.9h-16.6V489z"/>
		<path class="st3" d="M1135.4,582c7.3,4.7,17.9,8.3,29.2,8.3c16.7,0,26.5-8.8,26.5-21.6c0-11.7-6.8-18.6-23.9-25
			c-20.7-7.5-33.5-18.4-33.5-36.1c0-19.8,16.4-34.4,41-34.4c12.8,0,22.4,3,27.8,6.2l-4.5,13.4c-4-2.4-12.4-6-23.9-6
			c-17.3,0-23.9,10.3-23.9,19c0,11.9,7.7,17.7,25.2,24.5c21.4,8.3,32.2,18.6,32.2,37.3c0,19.6-14.3,36.7-44.2,36.7
			c-12.2,0-25.6-3.8-32.4-8.3L1135.4,582z"/>
		<path class="st3" d="M1348,537.2c0,43.5-26.5,66.8-58.9,66.8c-33.7,0-57-26.2-57-64.5c0-40.3,24.8-66.6,58.7-66.6
			C1325.6,472.8,1348,499.4,1348,537.2z M1249.4,539.1c0,27.3,14.7,51.6,40.6,51.6s40.6-23.9,40.6-52.7c0-25.4-13.2-51.7-40.4-51.7
			C1262.9,486.2,1249.4,511.4,1249.4,539.1z"/>
		<path class="st3" d="M1395,475.1v75.3c0,28.2,12.6,40.3,29.5,40.3c18.6,0,30.9-12.4,30.9-40.3v-75.3h16.6v74.1
			c0,38.9-20.5,54.7-48,54.7c-26,0-45.5-14.7-45.5-54.2v-74.7H1395z"/>
		<path class="st3" d="M1509.8,476.8c8.3-1.5,20.3-2.6,31.4-2.6c17.5,0,29,3.4,36.7,10.3c6.2,5.6,10,14.3,10,24.3
			c0,16.6-10.5,27.7-23.7,32.2v0.6c9.6,3.4,15.4,12.4,18.4,25.6c4.1,17.7,7.2,29.9,9.8,34.8h-16.9c-2.1-3.8-4.9-14.5-8.3-30.3
			c-3.8-17.5-10.7-24.1-25.6-24.6h-15.4v54.9h-16.4V476.8z M1526.1,534.5h16.7c17.5,0,28.6-9.6,28.6-24.1
			c0-16.4-11.9-23.5-29.2-23.5c-7.9,0-13.4,0.6-16.2,1.3V534.5z"/>
		<path class="st3" d="M1709.4,597.9c-5.8,3-18.1,6-33.5,6c-35.7,0-62.5-22.6-62.5-64.3c0-39.9,26.9-66.6,66.2-66.6
			c15.6,0,25.8,3.4,30.1,5.6l-4.1,13.4c-6-3-14.9-5.3-25.4-5.3c-29.7,0-49.5,19-49.5,52.3c0,31.2,17.9,51,48.5,51
			c10.2,0,20.3-2.1,26.9-5.3L1709.4,597.9z"/>
		<path class="st3" d="M1755.8,475.1v126.8h-16.6V475.1H1755.8z"/>
		<path class="st3" d="M1793.8,601.9V475.1h18.1l40.4,64.2c9.2,14.9,16.7,28.2,22.6,41.2l0.6-0.2c-1.5-16.9-1.9-32.4-1.9-52.1v-53.1
			h15.4v126.8h-16.6l-40.3-64.3c-8.8-14.1-17.3-28.6-23.5-42.3l-0.6,0.2c0.9,16,1.1,31.2,1.1,52.3v54.2H1793.8z"/>
		<path class="st3" d="M2023.8,596.3c-7.3,2.8-22,7-39.1,7c-19.2,0-35-4.9-47.4-16.7c-10.9-10.5-17.7-27.5-17.7-47.2
			c0-37.8,26.2-65.5,68.7-65.5c14.7,0,26.3,3.2,31.8,5.8l-4.1,13.4c-6.8-3.2-15.2-5.5-28-5.5c-30.9,0-51,19.2-51,51
			c0,32.2,19.2,51.2,48.9,51.2c10.7,0,18.1-1.5,21.8-3.4v-37.8H1982v-13.2h41.8V596.3z"/>
		<path class="st3" d="M2105.2,582c7.3,4.7,17.9,8.3,29.2,8.3c16.7,0,26.5-8.8,26.5-21.6c0-11.7-6.8-18.6-23.9-25
			c-20.7-7.5-33.5-18.4-33.5-36.1c0-19.8,16.4-34.4,41-34.4c12.8,0,22.4,3,27.8,6.2l-4.5,13.4c-4-2.4-12.4-6-23.9-6
			c-17.3,0-23.9,10.3-23.9,19c0,11.9,7.7,17.7,25.2,24.5c21.4,8.3,32.2,18.6,32.2,37.3c0,19.6-14.3,36.7-44.2,36.7
			c-12.2,0-25.6-3.8-32.4-8.3L2105.2,582z"/>
		<path class="st3" d="M2274.9,542.4h-49.1v45.7h54.9v13.7h-71.5V475.1h68.7v13.7h-52.1v40.1h49.1V542.4z"/>
		<path class="st3" d="M2311.4,476.8c8.3-1.5,20.3-2.6,31.4-2.6c17.5,0,29,3.4,36.7,10.3c6.2,5.6,10,14.3,10,24.3
			c0,16.6-10.5,27.7-23.7,32.2v0.6c9.6,3.4,15.4,12.4,18.4,25.6c4.1,17.7,7.2,29.9,9.8,34.8h-16.9c-2.1-3.8-4.9-14.5-8.3-30.3
			c-3.8-17.5-10.7-24.1-25.6-24.6h-15.4v54.9h-16.4V476.8z M2327.8,534.5h16.7c17.5,0,28.6-9.6,28.6-24.1
			c0-16.4-11.9-23.5-29.2-23.5c-7.9,0-13.4,0.6-16.2,1.3V534.5z"/>
		<path class="st3" d="M2452.9,601.9l-41.6-126.8h17.9l19.8,62.5c5.3,17.1,10,32.5,13.5,47.4h0.4c3.6-14.7,8.7-30.7,14.5-47.2
			l21.4-62.7h17.5L2471,601.9H2452.9z"/>
		<path class="st3" d="M2555.8,475.1v126.8h-16.6V475.1H2555.8z"/>
		<path class="st3" d="M2682.2,597.9c-5.8,3-18.1,6-33.5,6c-35.7,0-62.5-22.6-62.5-64.3c0-39.9,26.9-66.6,66.2-66.6
			c15.6,0,25.8,3.4,30.1,5.6l-4.1,13.4c-6-3-14.9-5.3-25.4-5.3c-29.7,0-49.5,19-49.5,52.3c0,31.2,17.9,51,48.5,51
			c10.2,0,20.3-2.1,26.9-5.3L2682.2,597.9z"/>
		<path class="st3" d="M2777.8,542.4h-49.1v45.7h54.9v13.7h-71.5V475.1h68.7v13.7h-52.1v40.1h49.1V542.4z"/>
		<path class="st3" d="M2812.2,582c7.3,4.7,17.9,8.3,29.2,8.3c16.7,0,26.5-8.8,26.5-21.6c0-11.7-6.8-18.6-23.9-25
			c-20.7-7.5-33.5-18.4-33.5-36.1c0-19.8,16.4-34.4,41-34.4c12.8,0,22.4,3,27.8,6.2l-4.5,13.4c-4-2.4-12.4-6-23.9-6
			c-17.3,0-23.9,10.3-23.9,19c0,11.9,7.7,17.7,25.2,24.5c21.4,8.3,32.2,18.6,32.2,37.3c0,19.6-14.3,36.7-44.2,36.7
			c-12.2,0-25.6-3.8-32.4-8.3L2812.2,582z"/>
	</g>
</g>
</svg>
